<svg id="Layer_1" data-name="Layer 1" xmlns="http://www.w3.org/2000/svg" viewBox="0 0 150 150"><defs><style>.cls-1,.cls-2,.cls-4,.cls-5{fill:#fff;}.cls-1,.cls-2,.cls-3,.cls-4,.cls-5{stroke:#0b3544;stroke-miterlimit:10;}.cls-1,.cls-3,.cls-5{stroke-linecap:round;}.cls-1,.cls-2,.cls-3{stroke-width:1.5px;}.cls-3{fill:none;}.cls-6{fill:#0b3544;}</style></defs><title>bestprice_1</title><line class="cls-1" x1="1.51" y1="133" x2="148.49" y2="133"/><path class="cls-2" d="M70.39,96.38l.4,1.76h3.1l.6-2.93s4.39-2.06,5.56-5.59l2.46-.57V84.2l-2.23-.47s-1.43-2.66-2-3c0,0,1.26-2.5,1.07-4a11.13,11.13,0,0,0-4.46,1.43,7.21,7.21,0,0,1-1.46-.47,23.57,23.57,0,0,0-3.66-.74,14.42,14.42,0,0,0-9.28,2,9.58,9.58,0,0,0-4.8,8.48s.07,4.23,5.56,7.46l.57,3.26H65l.33-1.8A16.1,16.1,0,0,0,70.39,96.38Z"/><path class="cls-3" d="M52,87.93a3.88,3.88,0,0,0,3.59-.5"/><circle class="cls-4" cx="77.01" cy="83.57" r="1.02"/><line class="cls-2" x1="63.99" y1="80.67" x2="72.68" y2="80.67"/><path class="cls-5" d="M58,84.94a6.89,6.89,0,0,1,3.15-4"/><path class="cls-5" d="M76.74,91.09a8.63,8.63,0,0,1-2.57,2"/><line class="cls-5" x1="78.03" y1="89.47" x2="77.48" y2="90.25"/><path class="cls-6" d="M65.23,87a.46.46,0,0,0,.46.46h3.77a1.9,1.9,0,0,1-1.84,1.44H65.85a.53.53,0,0,0-.38.89l3.07,3.19a.46.46,0,1,0,.66-.63l-2.44-2.53h.86a2.81,2.81,0,0,0,2.77-2.35H71a.46.46,0,1,0,0-.91h-.59a2.8,2.8,0,0,0-.7-1.44H71a.46.46,0,0,0,0-.91h-5.3a.46.46,0,0,0,0,.91h1.93a1.9,1.9,0,0,1,1.84,1.44H65.69a.46.46,0,0,0-.46.46Z"/><rect class="cls-2" x="63.48" y="103.37" width="8.61" height="29.59"/><rect class="cls-2" x="37.52" y="98.15" width="60.52" height="5.23" rx="1" ry="1"/><rect class="cls-2" x="63.48" y="129.93" width="8.61" height="3.04"/><path class="cls-2" d="M61.1,133h-5l-1.93-17.59a.91.91,0,0,0-.91-.81H30.14a.91.91,0,0,0-.91.82L27.55,133H21.28V58.09a.91.91,0,0,1,.91-.91h2.24a.91.91,0,0,1,.91.83l4.28,46.72a.91.91,0,0,0,.91.83H60.19a.91.91,0,0,1,.91.91Z"/><path class="cls-2" d="M75.08,133h5L82,115.38a.91.91,0,0,1,.91-.81H106a.91.91,0,0,1,.91.82L108.63,133h6.27V58.09a.91.91,0,0,0-.91-.91h-2.24a.91.91,0,0,0-.91.83l-4.28,46.72a.91.91,0,0,1-.91.83H76a.91.91,0,0,0-.91.91Z"/><circle class="cls-2" cx="23.92" cy="16.53" r="4.7"/><circle class="cls-2" cx="85.79" cy="50.01" r="1.89"/><circle class="cls-2" cx="132.94" cy="49.89" r="1.89"/><circle class="cls-2" cx="139.82" cy="19.99" r="3.17"/><circle class="cls-2" cx="61.71" cy="35.77" r="1.89"/><circle class="cls-2" cx="84.33" cy="11.73" r="1.89"/><circle class="cls-2" cx="18.22" cy="47.95" r="1.89"/></svg>