<svg id="Layer_1" data-name="Layer 1" xmlns="http://www.w3.org/2000/svg" viewBox="0 0 150 150">
    <defs>
        <style>
            .cls-1,.cls-4,.cls-6{fill:none;}.cls-1,.cls-2,.cls-3,.cls-4,.cls-5,.cls-6{stroke:#0b3544;stroke-miterlimit:10;}.cls-1,.cls-6{stroke-linecap:round;}.cls-1,.cls-2,.cls-4,.cls-5{stroke-width:1.5px;}.cls-2,.cls-7{fill:#fff;}.cls-3,.cls-5{fill:#0095e8;}.cls-8{fill:#0b3544;}
        </style>
    </defs>
    <line class="cls-1" x1="1.51" y1="132.96" x2="148.49" y2="132.96"/>
    <path class="cls-2"
          d="M70.4,96.34l.4,1.76h3.09l.6-2.93s4.39-2.06,5.55-5.59L82.5,89V84.17l-2.23-.47s-1.43-2.66-2-3c0,0,1.26-2.49,1.06-4a11.12,11.12,0,0,0-4.46,1.43s-7.68-3-12.7-.07c0,0-6.68,2.39-6.48,9.34,0,0,.07,4.22,5.55,7.45l.57,3.26H65l.33-1.8A16.08,16.08,0,0,0,70.4,96.34Z"/>
    <path class="cls-1" d="M52.08,87.9a3.87,3.87,0,0,0,3.59-.5"/>
    <circle class="cls-3" cx="77.02" cy="83.54" r="1.01"/>
    <line class="cls-4" x1="64.01" y1="80.65" x2="72.69" y2="80.65"/>
    <circle class="cls-5" cx="68.35" cy="74.12" r="5.57"/>
    <path class="cls-6" d="M58,84.92a6.89,6.89,0,0,1,3.15-4"/>
    <path class="cls-6" d="M76.75,91.06a8.62,8.62,0,0,1-2.57,2"/>
    <line class="cls-6" x1="78.03" y1="89.44" x2="77.48" y2="90.21"/>
    <path class="cls-7"
          d="M66.06,73.21a.34.34,0,0,0,.34.34h2.78a1.4,1.4,0,0,1-1.35,1.06H66.52a.39.39,0,0,0-.28.66l2.27,2.35a.34.34,0,1,0,.49-.47l-1.8-1.86h.63a2.07,2.07,0,0,0,2-1.73h.44a.34.34,0,0,0,0-.67h-.44a2.06,2.06,0,0,0-.52-1.06h1a.34.34,0,0,0,0-.67H66.4a.34.34,0,1,0,0,.67h1.43a1.4,1.4,0,0,1,1.35,1.06H66.4a.34.34,0,0,0-.34.34Z"/>
    <path class="cls-8"
          d="M65.23,86.47a.46.46,0,0,0,.46.46h3.79a1.91,1.91,0,0,1-1.85,1.44H65.85a.53.53,0,0,0-.38.89l3.09,3.2a.46.46,0,1,0,.66-.64l-2.45-2.54h.86a2.83,2.83,0,0,0,2.78-2.36H71A.46.46,0,1,0,71,86h-.6a2.81,2.81,0,0,0-.7-1.44H71a.46.46,0,1,0,0-.92H65.69a.46.46,0,0,0,0,.92h1.94A1.91,1.91,0,0,1,69.48,86H65.69a.46.46,0,0,0-.46.46Z"/>
    <rect class="cls-2" x="63.33" y="103.32" width="8.6" height="29.56"/>
    <rect class="cls-2" x="37.4" y="98.1" width="60.46" height="5.22" rx="1" ry="1"/>
    <rect class="cls-5" x="63.33" y="129.92" width="8.6" height="2.97"/>
    <path class="cls-2"
          d="M119.89,89.79l.46.74,1.26,4.72,2.8,10.5,2.88,10.83c.67,2.53,1.43,5,2,7.6.38,1.61.74,3.75,0,5.32a6,6,0,0,1-11.07-.47c-1.16-2.56-1.93-5.28-2.92-7.9l-3.08-8.22-3.41-9.09-2.27-6-.26-.69-1.64-2.16Z"/>
    <circle class="cls-2" cx="101.52" cy="26.93" r="10.92"/>
    <path class="cls-2"
          d="M107,40.63s9.46-2.23,12.52,11.82c0,0,3.48,14.33,3.06,26.57,0,0,1.39,5.7-2.64,9.32l-.07,1.87-.66,2-.49,3.34-1.16,8-1.39,9.56a22.37,22.37,0,0,1-.45,3.08c-.16,1.09-.32,2.17-.48,3.26-.28,2-.56,4.09-.89,6.12a12.77,12.77,0,0,1-1.58,5.11,5.94,5.94,0,0,1-3.95,2.33,6.05,6.05,0,0,1-5-1.91,7.12,7.12,0,0,1-1.71-5.36c.1-3,.42-6,.56-9s.27-6.26.42-9.4l0-.66,0-.56.45-9.59.14-2.93a5.84,5.84,0,0,1,.05-1.08l.58-2.34L104,84.94l-.7-1.67-1-15.65s-6.12,5.84-18.5,3.69c0,0-11.27-1.25-12.1-6.05,0,0-1.32-3.69,1.25-5.84a5.82,5.82,0,0,1,6.19-1.6s9.74,4.1,15.23.9a11.11,11.11,0,0,0,4.45-5.43S95.88,42.71,107,40.63Z"/>
    <path class="cls-5"
          d="M60.95,132.89H56L54,115.32a.91.91,0,0,0-.9-.81H30a.91.91,0,0,0-.91.82l-1.69,17.54H21.17V58.09a.91.91,0,0,1,.91-.91h2.24a.91.91,0,0,1,.91.83l4.28,46.67a.91.91,0,0,0,.91.83H60a.91.91,0,0,1,.91.91Z"/>
    <circle class="cls-5" cx="23.92" cy="16.53" r="4.81"/>
    <circle class="cls-2" cx="85.79" cy="50.01" r="1.94"/>
    <circle class="cls-2" cx="132.94" cy="49.89" r="1.94"/>
    <circle class="cls-5" cx="139.82" cy="19.99" r="3.24"/>
    <circle class="cls-5" cx="61.71" cy="35.77" r="1.94"/>
    <circle class="cls-2" cx="84.33" cy="11.72" r="1.94"/>
    <circle class="cls-2" cx="18.22" cy="47.95" r="1.94"/>
</svg>