<svg id="Layer_1" data-name="Layer 1" xmlns="http://www.w3.org/2000/svg" viewBox="0 0 150 150">
    <defs>
        <style>
            .cls-1,.cls-3,.cls-4,.cls-5{fill:#fff;}.cls-1,.cls-2,.cls-3,.cls-4{stroke:#0b3544;stroke-miterlimit:10;}.cls-1,.cls-2,.cls-4{stroke-width:1.5px;}.cls-2{fill:#0095e8;}.cls-4{stroke-linecap:round;}
        </style>
    </defs>
    <line class="cls-1" x1="44.96" y1="75.02" x2="103.87" y2="74.99"/>
    <rect class="cls-1" x="9.18" y="71.47" width="130.71" height="61.43" rx="1" ry="1"/>
    <rect class="cls-2" x="117.45" y="82.74" width="16.15" height="30.19" rx="1" ry="1"/>
    <rect class="cls-1" x="31.01" y="74.99" width="87.23" height="3.76" rx="1" ry="1"/>
    <rect class="cls-1" x="36.37" y="78.75" width="4.7" height="50.4"/>
    <rect class="cls-1" x="108.11" y="78.75" width="4.7" height="50.4"/>
    <rect class="cls-2" x="9.18" y="129.1" width="130.71" height="3.94"/>
    <rect class="cls-1" x="7.45" y="67.03" width="134.18" height="4.44" rx="1" ry="1"/>
    <rect class="cls-2" x="9.18" y="61.66" width="130.71" height="5.38" rx="1" ry="1"/>
    <polygon class="cls-1"
             points="74.64 50.83 110.45 74.99 103.87 74.99 74.64 54.95 44.96 75.03 38.97 75.03 74.64 50.83"/>
    <polygon class="cls-1" points="103.87 74.99 74.64 54.95 44.96 75.03 103.87 74.99"/>
    <rect class="cls-3" x="119.05" y="100.95" width="12.86" height="10.33" rx="1" ry="1"/>
    <rect class="cls-3" x="119.05" y="84.47" width="5.59" height="14.84" rx="1" ry="1"/>
    <rect class="cls-3" x="126.32" y="84.47" width="5.59" height="14.84" rx="1" ry="1"/>
    <rect class="cls-2" x="14.86" y="82.74" width="16.15" height="30.19" rx="1" ry="1"/>
    <rect class="cls-3" x="16.46" y="100.95" width="12.86" height="10.33" rx="1" ry="1"/>
    <rect class="cls-3" x="16.46" y="84.47" width="5.59" height="14.84" rx="1" ry="1"/>
    <rect class="cls-3" x="23.74" y="84.47" width="5.59" height="14.84" rx="1" ry="1"/>
    <rect class="cls-2" x="54.3" y="71.05" width="40.66" height="11.17"/>
    <line class="cls-4" x1="2.34" y1="133.04" x2="147.66" y2="133.04"/>
    <path class="cls-5"
          d="M65.58,74.49a1.64,1.64,0,0,1-1.3,1.65A1.8,1.8,0,0,1,65.86,78c0,1.27-1,2-2.7,2H59.88V72.64h3.22C64.63,72.64,65.58,73.34,65.58,74.49Zm-1.28.22c0-.61-.48-1-1.27-1h-1.9v1.95H63C63.82,75.71,64.3,75.35,64.3,74.71Zm.29,3.14c0-.66-.58-1.06-1.55-1h-1.9v2.12H63C64,78.93,64.58,78.54,64.58,77.86Z"/>
    <path class="cls-5"
          d="M72.13,78.37H68.4L67.69,80h-1.3l3.27-7.41h1.28L74.17,80H72.84Zm-.48-1.11L70.26,74l-1.4,3.29Z"/>
    <path class="cls-5" d="M76.39,72.64l4,5.32V72.64h1.23V80H80.35l-3.95-5.31V80H75.16V72.64Z"/>
    <path class="cls-5" d="M88.48,80l-2.43-3.27-1.26,1.39V80H83.54V72.64h1.25v3.83l3.53-3.83h1.47L86.93,75.8,90,80Z"/>
    <path class="cls-1"
          d="M68.35,116.18h3.21a.37.37,0,0,1,.37.37v.9a0,0,0,0,1,0,0H68a0,0,0,0,1,0,0v-.9A.37.37,0,0,1,68.35,116.18Z"
          transform="translate(-28.24 22.49) rotate(-15.24)"/>
    <rect class="cls-2" x="65.04" y="117.28" width="12.34" height="8.36" rx="1" ry="1"
          transform="matrix(0.96, -0.26, 0.26, 0.96, -29.42, 22.98)"/>
    <rect class="cls-1" x="68.83" y="116.89" width="2.38" height="0.55"
          transform="translate(-28.33 22.52) rotate(-15.24)"/>
    <rect class="cls-1" x="72.87" y="116.18" width="1.24" height="0.32"
          transform="translate(-27.99 23.4) rotate(-15.24)"/>
    <rect class="cls-1" x="65.98" y="118.05" width="1.24" height="0.32"
          transform="translate(-28.72 21.66) rotate(-15.24)"/>
    <path class="cls-1"
          d="M64.56,118.89h.71a0,0,0,0,1,0,0v.71a.29.29,0,0,1-.29.29h-.71a0,0,0,0,1,0,0v-.71A.29.29,0,0,1,64.56,118.89Z"
          transform="translate(-29.1 21.22) rotate(-15.24)"/>
    <path class="cls-1"
          d="M75.21,115.92h.71a.29.29,0,0,1,.29.29v.71a0,0,0,0,1,0,0H75.5a.29.29,0,0,1-.29-.29v-.71A0,0,0,0,1,75.21,115.92Z"
          transform="translate(-27.93 23.99) rotate(-15.24)"/>
    <path class="cls-1"
          d="M66.2,126h.71a.29.29,0,0,1,.29.29V127a0,0,0,0,1,0,0h-.71a.29.29,0,0,1-.29-.29V126A0,0,0,0,1,66.2,126Z"
          transform="translate(-30.9 21.98) rotate(-15.24)"/>
    <path class="cls-1"
          d="M77.43,123h.71a0,0,0,0,1,0,0v.71a.29.29,0,0,1-.29.29h-.71a0,0,0,0,1,0,0v-.71A.29.29,0,0,1,77.43,123Z"
          transform="translate(-29.73 24.75) rotate(-15.24)"/>
    <circle class="cls-1" cx="63.38" cy="105.86" r="2.84"/>
    <path class="cls-1"
          d="M61.95,109.42s-2.46-.58-3.26,3.08a30.33,30.33,0,0,0-.8,6.91,2.64,2.64,0,0,0,.69,2.42l.36,9.26s0,1.59.58,2c0,0,1.23,1.1,2.42-.51a4.87,4.87,0,0,0,.2-1.83l.58-9.77.18-.43.25-4.07s1.59,1.52,4.81,1c0,0,2.93-.33,3.15-1.57a1.46,1.46,0,0,0-.33-1.52,1.51,1.51,0,0,0-1.61-.42s-2.53,1.07-4,.24a2.89,2.89,0,0,1-1.16-1.41A2.54,2.54,0,0,0,61.95,109.42Z"/>
    <circle class="cls-1" cx="86.62" cy="105.86" r="2.84"/>
    <path class="cls-1"
          d="M88.05,109.42s2.46-.58,3.26,3.08a30.33,30.33,0,0,1,.8,6.91,2.64,2.64,0,0,1-.69,2.42l-.36,9.26s0,1.59-.58,2c0,0-1.23,1.1-2.42-.51a4.87,4.87,0,0,1-.2-1.83l-.58-9.77-.18-.43-.25-4.07s-1.59,1.52-4.81,1c0,0-2.93-.33-3.15-1.57a1.46,1.46,0,0,1,.33-1.52,1.51,1.51,0,0,1,1.61-.42s2.53,1.07,4,.24a2.89,2.89,0,0,0,1.16-1.41A2.54,2.54,0,0,1,88.05,109.42Z"/>
    <circle class="cls-2" cx="126.42" cy="44.61" r="7.25"/>
    <circle class="cls-2" cx="29.32" cy="16.4" r="4.71"/>
    <circle class="cls-1" cx="89.96" cy="49.2" r="1.9"/>
    <circle class="cls-2" cx="66.36" cy="35.25" r="1.9"/>
    <circle class="cls-1" cx="88.52" cy="11.69" r="1.9"/>
    <circle class="cls-1" cx="23.74" cy="47.19" r="1.9"/>
</svg>