<svg id="Layer_1" data-name="Layer 1" xmlns="http://www.w3.org/2000/svg" viewBox="0 0 150 150"><defs><style>.cls-1,.cls-2,.cls-3{fill:#fff;stroke:#0b3544;stroke-miterlimit:10;}.cls-1,.cls-3{stroke-width:1.5px;}.cls-3{stroke-linecap:round;}.cls-4{fill:#0b3544;}</style></defs><title>easyloan_1</title><line class="cls-1" x1="44.97" y1="75.01" x2="103.86" y2="74.97"/><rect class="cls-1" x="9.21" y="71.45" width="130.66" height="61.55" rx="1" ry="1"/><rect class="cls-1" x="117.43" y="82.72" width="16.14" height="30.18" rx="1" ry="1"/><rect class="cls-1" x="31.03" y="74.97" width="87.2" height="3.75" rx="1" ry="1"/><rect class="cls-1" x="36.38" y="78.73" width="4.69" height="50.38"/><rect class="cls-1" x="108.09" y="78.73" width="4.69" height="50.38"/><rect class="cls-1" x="9.21" y="129.06" width="130.66" height="3.94"/><rect class="cls-1" x="7.47" y="67.02" width="134.13" height="4.44" rx="1" ry="1"/><rect class="cls-1" x="9.21" y="61.64" width="130.66" height="5.37" rx="1" ry="1"/><polygon class="cls-1" points="74.64 50.83 110.44 74.97 103.86 74.97 74.64 54.94 44.97 75.01 38.99 75.01 74.64 50.83"/><polygon class="cls-1" points="103.86 74.97 74.64 54.94 44.97 75.01 103.86 74.97"/><rect class="cls-2" x="119.03" y="100.92" width="12.86" height="10.33" rx="1" ry="1"/><rect class="cls-2" x="119.03" y="84.45" width="5.58" height="14.83" rx="1" ry="1"/><rect class="cls-2" x="126.3" y="84.45" width="5.58" height="14.83" rx="1" ry="1"/><rect class="cls-1" x="14.89" y="82.72" width="16.14" height="30.18" rx="1" ry="1"/><rect class="cls-2" x="16.48" y="100.92" width="12.86" height="10.33" rx="1" ry="1"/><rect class="cls-2" x="16.48" y="84.45" width="5.58" height="14.83" rx="1" ry="1"/><rect class="cls-2" x="23.76" y="84.45" width="5.58" height="14.83" rx="1" ry="1"/><rect class="cls-1" x="54.31" y="71.03" width="40.64" height="11.17"/><line class="cls-3" x1="2.34" y1="133" x2="147.66" y2="133"/><path class="cls-4" d="M65.58,74.47a1.64,1.64,0,0,1-1.3,1.65A1.8,1.8,0,0,1,65.87,78c0,1.27-1,2-2.7,2H59.88v-7.4H63.1C64.63,72.62,65.58,73.32,65.58,74.47Zm-1.28.22c0-.61-.48-1-1.27-1h-1.9v1.95H63C63.83,75.69,64.3,75.33,64.3,74.69Zm.29,3.14c0-.66-.58-1.06-1.55-1h-1.9V78.9H63C64,78.91,64.59,78.52,64.59,77.84Z"/><path class="cls-4" d="M72.13,78.35H68.4L67.69,80h-1.3l3.27-7.4h1.28L74.17,80H72.84Zm-.48-1.11L70.26,74l-1.4,3.29Z"/><path class="cls-4" d="M76.39,72.62l4,5.32V72.62h1.23V80H80.35l-3.94-5.31V80H75.16v-7.4Z"/><path class="cls-4" d="M88.48,80,86,76.76l-1.26,1.39V80H83.54v-7.4h1.25v3.83l3.53-3.83h1.47l-2.87,3.16L90,80Z"/><circle class="cls-1" cx="86.55" cy="105.83" r="2.84"/><path class="cls-1" d="M88,109.39s2.46-.58,3.25,3.07a30.32,30.32,0,0,1,.8,6.91,2.64,2.64,0,0,1-.69,2.42L91,131.05s0,1.59-.58,2c0,0-1.23,1.1-2.42-.51a4.86,4.86,0,0,1-.2-1.83l-.58-9.76-.18-.43-.25-4.07s-1.59,1.52-4.81,1c0,0-2.93-.33-3.15-1.57a1.46,1.46,0,0,1,.33-1.52,1.51,1.51,0,0,1,1.61-.42s2.53,1.07,4,.24a2.89,2.89,0,0,0,1.16-1.41A2.54,2.54,0,0,1,88,109.39Z"/><circle class="cls-1" cx="126.36" cy="44.62" r="7.13"/><circle class="cls-1" cx="29.32" cy="16.39" r="4.64"/><circle class="cls-1" cx="89.96" cy="49.18" r="1.87"/><circle class="cls-1" cx="66.32" cy="35.24" r="1.87"/><circle class="cls-1" cx="88.52" cy="11.64" r="1.87"/><circle class="cls-1" cx="23.71" cy="47.21" r="1.87"/></svg>