<svg id="Layer_1" data-name="Layer 1" xmlns="http://www.w3.org/2000/svg" viewBox="0 0 150 150"><defs><style>.cls-1,.cls-2,.cls-3{fill:#fff;stroke-miterlimit:10;}.cls-1,.cls-2{stroke:#0b3544;stroke-width:1.5px;}.cls-2{stroke-linecap:round;}.cls-3{stroke:#123842;}</style></defs><title>meet </title><path class="cls-1" d="M61.72,133H58.15L56.7,119.83H39L37.69,133H33.2V78.82l2.85-.13,3.18,34.68H61.72Z"/><path class="cls-1" d="M95,133h3.57L100,119.83h17.74L119,133h4.49V78.72h-2.86l-3.18,34.65H95Z"/><rect class="cls-1" x="74.58" y="103.59" width="6.94" height="29.41"/><rect class="cls-1" x="53.64" y="99.38" width="48.83" height="4.22"/><line class="cls-2" x1="2.85" y1="133" x2="146.87" y2="133"/><rect class="cls-1" x="74.58" y="129.93" width="6.94" height="3.07"/><path class="cls-1" d="M98.32,76.34h-40a2,2,0,0,1-2-2V51.18a2,2,0,0,1,2-2h40a2,2,0,0,1,2,2V74.34A2,2,0,0,1,98.32,76.34Zm-.4-24.94H58.52V71.47h39.4Z"/><path class="cls-3" d="M78.33,72.88h.05a1,1,0,0,1,.94,1.06.94.94,0,0,1-1,.93,1,1,0,0,1-1-1.05A1,1,0,0,1,78.33,72.88Z"/><path class="cls-1" d="M76.7,95.06h3.51a.45.45,0,0,1,.45.45v2.06a1.8,1.8,0,0,1-1.8,1.8H78a1.8,1.8,0,0,1-1.8-1.8V95.51a.45.45,0,0,1,.45-.45Z"/><path class="cls-1" d="M83.75,96.72h7.66a0,0,0,0,1,0,0V98a1.28,1.28,0,0,1-1.28,1.28H85A1.28,1.28,0,0,1,83.75,98V96.72a0,0,0,0,1,0,0Z"/><path class="cls-1" d="M65.37,96.72H73a0,0,0,0,1,0,0V98a1.28,1.28,0,0,1-1.28,1.28h-5.1A1.28,1.28,0,0,1,65.37,98V96.72A0,0,0,0,1,65.37,96.72Z"/><path class="cls-1" d="M78.93,95.06s.29-4,3.2-4.21c0,0,.63-2.22,3.28-.17,0,0-2.06,2.32-3.24.25C82.17,90.94,79.88,90.75,78.93,95.06Z"/><path class="cls-1" d="M78,95.06s.34-4.13-1.4-6c0,0,1.52-1.86-1.74-2.82,0,0-.89,3.18,1.59,2.89C76.41,89.11,78,90.16,78,95.06Z"/><circle class="cls-1" cx="31.73" cy="17.5" r="4.78"/><circle class="cls-1" cx="132.32" cy="71.41" r="1.93"/><circle class="cls-1" cx="24.64" cy="80.45" r="1.93"/><circle class="cls-1" cx="132.32" cy="40.53" r="3.23"/><circle class="cls-1" cx="66.86" cy="28.81" r="1.93"/><circle class="cls-1" cx="110.22" cy="11.76" r="1.93"/><circle class="cls-1" cx="16.38" cy="47.79" r="1.93"/></svg>