<svg id="Layer_1" data-name="Layer 1" xmlns="http://www.w3.org/2000/svg" viewBox="0 0 150 150">
    <defs>
        <style>
            .cls-1{fill:#fff;}.cls-1,.cls-2,.cls-3,.cls-4{stroke:#0b3544;stroke-miterlimit:10;stroke-width:1.5px;}.cls-2{fill:#0095e8;}.cls-3,.cls-4{fill:none;}.cls-4{stroke-linecap:round;}
        </style>
    </defs>
    <title>visit-onhover_1</title>
    <rect class="cls-1" x="45.73" y="26.94" width="64.18" height="106.1"/>
    <rect class="cls-2" x="54.26" y="99.48" width="7.01" height="8.93" rx="1" ry="1"/>
    <line class="cls-3" x1="54.26" y1="103.94" x2="61.27" y2="103.94"/>
    <rect class="cls-3" x="67.54" y="99.48" width="7.01" height="8.93" rx="1" ry="1"/>
    <line class="cls-3" x1="67.54" y1="103.94" x2="74.54" y2="103.94"/>
    <rect class="cls-3" x="81.04" y="99.48" width="7.01" height="8.93" rx="1" ry="1"/>
    <line class="cls-3" x1="81.04" y1="103.94" x2="88.05" y2="103.94"/>
    <rect class="cls-2" x="94.37" y="99.48" width="7.01" height="8.93" rx="1" ry="1"/>
    <line class="cls-3" x1="94.37" y1="103.94" x2="101.38" y2="103.94"/>
    <rect class="cls-3" x="54.26" y="59.62" width="7.01" height="8.93" rx="1" ry="1"/>
    <line class="cls-3" x1="54.26" y1="64.08" x2="61.27" y2="64.08"/>
    <rect class="cls-3" x="67.54" y="59.62" width="7.01" height="8.93" rx="1" ry="1"/>
    <line class="cls-3" x1="67.54" y1="64.08" x2="74.54" y2="64.08"/>
    <rect class="cls-2" x="81.04" y="59.62" width="7.01" height="8.93" rx="1" ry="1"/>
    <line class="cls-3" x1="81.04" y1="64.08" x2="88.05" y2="64.08"/>
    <rect class="cls-3" x="94.37" y="59.62" width="7.01" height="8.93" rx="1" ry="1"/>
    <line class="cls-3" x1="94.37" y1="64.08" x2="101.38" y2="64.08"/>
    <rect class="cls-3" x="54.26" y="79.59" width="7.01" height="8.93" rx="1" ry="1"/>
    <line class="cls-3" x1="54.26" y1="84.05" x2="61.27" y2="84.05"/>
    <rect class="cls-2" x="67.54" y="79.59" width="7.01" height="8.93" rx="1" ry="1"/>
    <line class="cls-3" x1="67.54" y1="84.05" x2="74.54" y2="84.05"/>
    <rect class="cls-3" x="81.04" y="79.59" width="7.01" height="8.93" rx="1" ry="1"/>
    <line class="cls-3" x1="81.04" y1="84.05" x2="88.05" y2="84.05"/>
    <rect class="cls-3" x="94.37" y="79.59" width="7.01" height="8.93" rx="1" ry="1"/>
    <line class="cls-3" x1="94.37" y1="84.05" x2="101.38" y2="84.05"/>
    <line class="cls-4" x1="1.83" y1="133.04" x2="148.17" y2="133.04"/>
    <path class="cls-1"
          d="M73.6,116.71H82a1,1,0,0,1,1,1V133a0,0,0,0,1,0,0H72.6a0,0,0,0,1,0,0V117.71A1,1,0,0,1,73.6,116.71Z"/>
    <rect class="cls-2" x="42.2" y="21.97" width="71.18" height="4.97" rx="1" ry="1"/>
    <rect class="cls-2" x="54.26" y="39.65" width="7.01" height="8.93" rx="1" ry="1"/>
    <line class="cls-3" x1="54.26" y1="44.11" x2="61.27" y2="44.11"/>
    <rect class="cls-3" x="67.54" y="39.65" width="7.01" height="8.93" rx="1" ry="1"/>
    <line class="cls-3" x1="67.54" y1="44.11" x2="74.54" y2="44.11"/>
    <rect class="cls-3" x="81.04" y="39.65" width="7.01" height="8.93" rx="1" ry="1"/>
    <line class="cls-3" x1="81.04" y1="44.11" x2="88.05" y2="44.11"/>
    <rect class="cls-2" x="94.37" y="39.65" width="7.01" height="8.93" rx="1" ry="1"/>
    <line class="cls-3" x1="94.37" y1="44.11" x2="101.38" y2="44.11"/>
    <line class="cls-2" x1="126.93" y1="117.19" x2="126.93" y2="132.67"/>
    <path class="cls-2"
          d="M126.54,128s-7.68-1-5.37-14.12a36,36,0,0,1,2.08-7.31c.61-1.49,1.94-6.84,4.32-5.92,2,.77,2.49,3.48,3.15,5.21,0,0,3.56,9.43,2.88,14.69a8.84,8.84,0,0,1-6.39,7.46Z"/>
    <line class="cls-2" x1="117.77" y1="126.31" x2="117.77" y2="132.67"/>
    <path class="cls-2"
          d="M117.61,130.76s-3.16-.39-2.21-5.81a14.81,14.81,0,0,1,.86-3c.25-.61.8-2.81,1.78-2.43.81.32,1,1.43,1.29,2.14,0,0,1.46,3.88,1.18,6a3.63,3.63,0,0,1-2.63,3.07Z"/>
    <circle class="cls-2" cx="27.73" cy="25.63" r="4.6"/>
    <circle class="cls-1" cx="117.77" cy="48.41" r="1.85"/>
    <circle class="cls-1" cx="124.94" cy="80.49" r="1.85"/>
    <circle class="cls-2" cx="138.56" cy="28.94" r="3.1"/>
    <circle class="cls-2" cx="35.19" cy="90.06" r="1.85"/>
    <circle class="cls-1" cx="98.77" cy="11.81" r="1.85"/>
    <circle class="cls-1" cx="22.28" cy="55.67" r="1.85"/>
    <path class="cls-1"
          d="M15.23,104.34h16a15,15,0,0,1,9.69,4.86s2.07,3.24,3.17,4c0,0,.91.53,9.92,1.73,0,0,3.47.11,4.22,1.77l2.64,8.45s1.21,1.89-.38,2.75H54.12a5.05,5.05,0,1,0-10.11,0H25.76a5,5,0,0,0-4.55-5c-1.86-.2-5.15.74-5.54,5H8.9a2,2,0,0,1,0-2.77l1-.14V109.28S10.56,104.64,15.23,104.34Z"/>
    <path class="cls-3"
          d="M20.33,106.94h3.5a0,0,0,0,1,0,0v8.67a0,0,0,0,1,0,0H13a0,0,0,0,1,0,0V114.3A7.36,7.36,0,0,1,20.33,106.94Z"/>
    <path class="cls-3" d="M42.39,115.62H26.81v-8.86h4.37s2.3-.26,5.2,2.26C38.16,110.53,39.11,113.43,42.39,115.62Z"/>
    <circle class="cls-1" cx="49.06" cy="127.91" r="5.05"/>
    <circle class="cls-1" cx="20.72" cy="127.91" r="5.05"/>
    <circle class="cls-2" cx="20.72" cy="127.91" r="2.25"/>
    <circle class="cls-2" cx="49.06" cy="127.91" r="2.25"/>
    <path class="cls-2" d="M58.19,116.71H54.27s-.22,4.94,5.4,4.71Z"/>
    <path class="cls-3"
          d="M29.47,115.62c0-.33,0-.6,0-.93,0-.48,0-1,0-1.46a1,1,0,0,1,1.08-1.09,1,1,0,0,1,1.08,1.08,1.81,1.81,0,0,0,.36,1.2c.27.38.51.79.77,1.18Z"/>
    <path class="cls-3" d="M30.8,108.11a1.85,1.85,0,1,1-1.86,1.84A1.85,1.85,0,0,1,30.8,108.11Z"/>
    <path class="cls-3"
          d="M18.74,115.62c0-.33,0-.6,0-.93,0-.48,0-1,0-1.46a1,1,0,0,1,1.08-1.09,1,1,0,0,1,1.08,1.08,1.81,1.81,0,0,0,.36,1.2c.27.38.51.79.77,1.18Z"/>
    <path class="cls-3" d="M20,108.07a1.85,1.85,0,1,1-1.86,1.84A1.85,1.85,0,0,1,20,108.07Z"/>
</svg>