<svg id="Layer_1" data-name="Layer 1" xmlns="http://www.w3.org/2000/svg" viewBox="0 0 150 150"><defs><style>.cls-1{fill:#fff;}.cls-1,.cls-2,.cls-3{stroke:#0b3544;stroke-miterlimit:10;stroke-width:1.5px;}.cls-2,.cls-3{fill:none;}.cls-3{stroke-linecap:round;}</style></defs><title>visit_1</title><rect class="cls-1" x="45.6" y="26.69" width="64.31" height="106.31"/><path class="cls-1" d="M73.52,116.64H82a1,1,0,0,1,1,1V133a0,0,0,0,1,0,0H72.52a0,0,0,0,1,0,0V117.64A1,1,0,0,1,73.52,116.64Z"/><rect class="cls-2" x="54.15" y="99.38" width="7.02" height="8.94" rx="1" ry="1"/><line class="cls-2" x1="54.15" y1="103.85" x2="61.17" y2="103.85"/><rect class="cls-2" x="67.45" y="99.38" width="7.02" height="8.94" rx="1" ry="1"/><line class="cls-2" x1="67.45" y1="103.85" x2="74.47" y2="103.85"/><rect class="cls-2" x="80.98" y="99.38" width="7.02" height="8.94" rx="1" ry="1"/><line class="cls-2" x1="80.98" y1="103.85" x2="88" y2="103.85"/><rect class="cls-2" x="94.34" y="99.38" width="7.02" height="8.94" rx="1" ry="1"/><line class="cls-2" x1="94.34" y1="103.85" x2="101.36" y2="103.85"/><rect class="cls-2" x="54.15" y="59.44" width="7.02" height="8.94" rx="1" ry="1"/><line class="cls-2" x1="54.15" y1="63.91" x2="61.17" y2="63.91"/><rect class="cls-2" x="67.45" y="59.44" width="7.02" height="8.94" rx="1" ry="1"/><line class="cls-2" x1="67.45" y1="63.91" x2="74.47" y2="63.91"/><rect class="cls-2" x="80.98" y="59.44" width="7.02" height="8.94" rx="1" ry="1"/><line class="cls-2" x1="80.98" y1="63.91" x2="88" y2="63.91"/><rect class="cls-2" x="94.34" y="59.44" width="7.02" height="8.94" rx="1" ry="1"/><line class="cls-2" x1="94.34" y1="63.91" x2="101.36" y2="63.91"/><rect class="cls-2" x="54.15" y="79.45" width="7.02" height="8.94" rx="1" ry="1"/><line class="cls-2" x1="54.15" y1="83.92" x2="61.17" y2="83.92"/><rect class="cls-2" x="67.45" y="79.45" width="7.02" height="8.94" rx="1" ry="1"/><line class="cls-2" x1="67.45" y1="83.92" x2="74.47" y2="83.92"/><rect class="cls-2" x="80.98" y="79.45" width="7.02" height="8.94" rx="1" ry="1"/><line class="cls-2" x1="80.98" y1="83.92" x2="88" y2="83.92"/><rect class="cls-2" x="94.34" y="79.45" width="7.02" height="8.94" rx="1" ry="1"/><line class="cls-2" x1="94.34" y1="83.92" x2="101.36" y2="83.92"/><line class="cls-3" x1="1.83" y1="133" x2="148.17" y2="133"/><rect class="cls-1" x="42.06" y="21.71" width="71.32" height="4.98" rx="1" ry="1"/><rect class="cls-2" x="54.15" y="39.43" width="7.02" height="8.94" rx="1" ry="1"/><line class="cls-2" x1="54.15" y1="43.9" x2="61.17" y2="43.9"/><rect class="cls-2" x="67.45" y="39.43" width="7.02" height="8.94" rx="1" ry="1"/><line class="cls-2" x1="67.45" y1="43.9" x2="74.47" y2="43.9"/><rect class="cls-2" x="80.98" y="39.43" width="7.02" height="8.94" rx="1" ry="1"/><line class="cls-2" x1="80.98" y1="43.9" x2="88" y2="43.9"/><rect class="cls-2" x="94.34" y="39.43" width="7.02" height="8.94" rx="1" ry="1"/><line class="cls-2" x1="94.34" y1="43.9" x2="101.36" y2="43.9"/><line class="cls-2" x1="126.96" y1="117.12" x2="126.96" y2="132.63"/><path class="cls-1" d="M126.56,128s-7.7-1-5.38-14.15a36.09,36.09,0,0,1,2.08-7.33c.61-1.5,1.95-6.85,4.33-5.93,2,.77,2.5,3.48,3.15,5.22,0,0,3.57,9.45,2.89,14.72a8.86,8.86,0,0,1-6.4,7.47Z"/><line class="cls-2" x1="117.78" y1="126.26" x2="117.78" y2="132.63"/><path class="cls-1" d="M117.62,130.72s-3.16-.4-2.21-5.82a14.84,14.84,0,0,1,.86-3c.25-.62.8-2.82,1.78-2.44.82.32,1,1.43,1.3,2.15,0,0,1.47,3.89,1.19,6a3.64,3.64,0,0,1-2.63,3.07Z"/><line class="cls-2" x1="28.4" y1="117.12" x2="28.4" y2="132.63"/><path class="cls-1" d="M28.8,128s7.7-1,5.38-14.15a36.09,36.09,0,0,0-2.08-7.33c-.61-1.5-1.95-6.85-4.33-5.93-2,.77-2.5,3.48-3.15,5.22,0,0-3.57,9.45-2.89,14.72a8.86,8.86,0,0,0,6.4,7.47Z"/><line class="cls-2" x1="37.58" y1="126.26" x2="37.58" y2="132.63"/><path class="cls-1" d="M37.75,130.72s3.16-.4,2.21-5.82a14.84,14.84,0,0,0-.86-3c-.25-.62-.8-2.82-1.78-2.44-.82.32-1,1.43-1.3,2.15,0,0-1.47,3.89-1.19,6a3.64,3.64,0,0,0,2.63,3.07Z"/><circle class="cls-1" cx="27.73" cy="25.66" r="4.61"/><circle class="cls-1" cx="117.67" cy="48.37" r="1.86"/><circle class="cls-1" cx="124.86" cy="80.51" r="1.86"/><circle class="cls-1" cx="138.51" cy="28.97" r="3.11"/><circle class="cls-1" cx="34.93" cy="90.1" r="1.86"/><circle class="cls-1" cx="98.64" cy="11.69" r="1.86"/><circle class="cls-1" cx="21.99" cy="55.65" r="1.86"/></svg>