<svg id="Layer_1" data-name="Layer 1" xmlns="http://www.w3.org/2000/svg" viewBox="0 0 150 150"><defs><style>.cls-1,.cls-2{fill:#fff;stroke:#f06236;stroke-miterlimit:10;stroke-width:1.5px;}.cls-2{stroke-linecap:round;}</style></defs><title>decorup_1</title><line class="cls-1" x1="28.25" y1="132.95" x2="30.57" y2="127.04"/><line class="cls-1" x1="55.96" y1="132.95" x2="53.72" y2="127.04"/><line class="cls-1" x1="60.53" y1="132.95" x2="60.53" y2="127.04"/><line class="cls-1" x1="23.61" y1="132.95" x2="23.61" y2="127.04"/><line class="cls-2" x1="2.93" y1="132.95" x2="146.99" y2="132.95"/><path class="cls-1" d="M116.46,133V64.6s13,.11,13.76,0l-5.85-22.86H105.52L99.88,64.6H116V133Z"/><path class="cls-1" d="M116.46,64.6h13.76l-5.85-22.86"/><line class="cls-1" x1="107.98" y1="64.6" x2="107.98" y2="74.17"/><rect class="cls-1" x="13.95" y="22.46" width="53.78" height="22.67"/><line class="cls-1" x1="40.85" y1="22.46" x2="40.85" y2="45.13"/><line class="cls-1" x1="72.59" y1="132.95" x2="74.91" y2="127.04"/><line class="cls-1" x1="100.3" y1="132.95" x2="98.05" y2="127.04"/><line class="cls-1" x1="104.87" y1="132.95" x2="104.87" y2="127.04"/><line class="cls-1" x1="67.95" y1="132.95" x2="67.95" y2="127.04"/><circle class="cls-1" cx="121.85" cy="23.68" r="8.37"/><circle class="cls-1" cx="15.58" cy="68.58" r="5.44"/><circle class="cls-1" cx="105.76" cy="11.82" r="2.03"/><circle class="cls-1" cx="68" cy="54.1" r="2.19"/><circle class="cls-1" cx="134" cy="110.16" r="2.19"/><circle class="cls-1" cx="10.68" cy="110.16" r="2.19"/><circle class="cls-1" cx="139.32" cy="62.4" r="2.19"/><circle class="cls-1" cx="13.39" cy="52.47" r="2.19"/><circle class="cls-1" cx="28.74" cy="13.49" r="2.19"/><path class="cls-1" d="M24.85,95.28h5.53a4.51,4.51,0,0,1,4.51,4.51V127.7a0,0,0,0,1,0,0H20.34a0,0,0,0,1,0,0V99.79A4.51,4.51,0,0,1,24.85,95.28Z"/><path class="cls-1" d="M98.78,95.28h5.53a4.51,4.51,0,0,1,4.51,4.51V127.7a0,0,0,0,1,0,0H94.27a0,0,0,0,1,0,0V99.79A4.51,4.51,0,0,1,98.78,95.28Z"/><rect class="cls-1" x="34.89" y="118.74" width="59.38" height="8.97"/><path class="cls-1" d="M42.32,106.77H57.25a7.42,7.42,0,0,1,7.42,7.42v4.55a0,0,0,0,1,0,0H34.89a0,0,0,0,1,0,0v-4.55A7.42,7.42,0,0,1,42.32,106.77Z"/><path class="cls-1" d="M72,106.77H86.85a7.42,7.42,0,0,1,7.42,7.42v4.55a0,0,0,0,1,0,0H64.61a0,0,0,0,1,0,0v-4.55A7.42,7.42,0,0,1,72,106.77Z"/><path class="cls-1" d="M34.91,101.31v13.85l1.27-2.1a24.78,24.78,0,0,1,2.21-3.37,8.29,8.29,0,0,1,.95-.95,6.72,6.72,0,0,1,4.39-1.52h1.43l6-.2,2.63-.09a11,11,0,0,1,3,.15,8.73,8.73,0,0,1,2.86,1.24,9.09,9.09,0,0,1,2,1.77,14.76,14.76,0,0,1,1.56,2.24l1.62,3V89a5.53,5.53,0,0,0-5.53-5.53h-26A5.53,5.53,0,0,0,27.62,89v6.33h.82A6.28,6.28,0,0,1,34.91,101.31Z"/><path class="cls-1" d="M64.61,115.16l.94-2.27a9.73,9.73,0,0,1,2.55-3.62l.14-.12a8.45,8.45,0,0,1,5.53-1.93s9.14-.15,13.25.08a4.11,4.11,0,0,1,2,.78,10,10,0,0,1,2.6,2.66l2.61,3.8v-13a6.23,6.23,0,0,1,6.23-6.23h1.17V89a5.53,5.53,0,0,0-5.53-5.53h-26A5.53,5.53,0,0,0,64.61,89v26.2Z"/><path class="cls-1" d="M112.59,119.84h6.91a1,1,0,0,1,1,1V133a0,0,0,0,1,0,0h-8.91a0,0,0,0,1,0,0V120.84A1,1,0,0,1,112.59,119.84Z"/></svg>