<svg id="Layer_1" data-name="Layer 1" xmlns="http://www.w3.org/2000/svg" viewBox="0 0 150 150">
    <defs>
        <style>
            .cls-1,.cls-2{fill:none;}.cls-1,.cls-2,.cls-3,.cls-4,.cls-5{stroke:#f06236;stroke-miterlimit:10;stroke-width:1.5px;}.cls-2,.cls-5{stroke-linecap:round;}.cls-3{fill:#f3815e;}.cls-4,.cls-5{fill:#fff;}
        </style>
    </defs>
    <line class="cls-1" x1="28.25" y1="132.95" x2="30.57" y2="127.04"/>
    <line class="cls-1" x1="23.61" y1="132.95" x2="23.61" y2="127.04"/>
    <line class="cls-2" x1="2.93" y1="132.95" x2="146.99" y2="132.95"/>
    <path class="cls-3" d="M116.46,133V64.6s13,.11,13.76,0l-5.85-22.86H105.52L99.88,64.6H116V133Z"/>
    <path class="cls-3" d="M116.46,64.6h13.76l-5.85-22.86"/>
    <line class="cls-3" x1="107.98" y1="64.6" x2="107.98" y2="74.17"/>
    <rect class="cls-4" x="13.95" y="22.46" width="53.78" height="22.67"/>
    <line class="cls-4" x1="40.85" y1="22.46" x2="40.85" y2="45.13"/>
    <line class="cls-1" x1="100.3" y1="132.95" x2="98.05" y2="127.04"/>
    <line class="cls-1" x1="104.87" y1="132.95" x2="104.87" y2="127.04"/>
    <circle class="cls-3" cx="121.85" cy="23.68" r="8.37"/>
    <circle class="cls-3" cx="15.58" cy="68.58" r="5.44"/>
    <circle class="cls-4" cx="105.76" cy="11.82" r="2.03"/>
    <circle class="cls-4" cx="68" cy="54.1" r="2.19"/>
    <circle class="cls-4" cx="134" cy="110.16" r="2.19"/>
    <circle class="cls-4" cx="10.68" cy="110.16" r="2.19"/>
    <circle class="cls-3" cx="139.32" cy="62.4" r="2.19"/>
    <circle class="cls-4" cx="13.39" cy="52.47" r="2.19"/>
    <circle class="cls-3" cx="28.74" cy="13.49" r="2.19"/>
    <path class="cls-3"
          d="M24.85,95.28h5.53a4.51,4.51,0,0,1,4.51,4.51V127.7a0,0,0,0,1,0,0H20.34a0,0,0,0,1,0,0V99.79A4.51,4.51,0,0,1,24.85,95.28Z"/>
    <path class="cls-3"
          d="M98.78,95.28h5.53a4.51,4.51,0,0,1,4.51,4.51V127.7a0,0,0,0,1,0,0H94.27a0,0,0,0,1,0,0V99.79A4.51,4.51,0,0,1,98.78,95.28Z"/>
    <rect class="cls-3" x="34.89" y="118.74" width="59.38" height="8.97"/>
    <path class="cls-4"
          d="M42.32,106.77H57.25a7.42,7.42,0,0,1,7.42,7.42v4.55a0,0,0,0,1,0,0H34.89a0,0,0,0,1,0,0v-4.55A7.42,7.42,0,0,1,42.32,106.77Z"/>
    <path class="cls-4"
          d="M72,106.77H86.85a7.42,7.42,0,0,1,7.42,7.42v4.55a0,0,0,0,1,0,0H64.61a0,0,0,0,1,0,0v-4.55A7.42,7.42,0,0,1,72,106.77Z"/>
    <path class="cls-3"
          d="M34.91,101.31l0,9.26,2.65-2.18a7.12,7.12,0,0,1,4.53-1.62H57.95a5,5,0,0,1,3.6,1.52l3.13,3.21V89a5.53,5.53,0,0,0-5.53-5.53h-26A5.53,5.53,0,0,0,27.62,89v6.33h.82C33.68,94.84,35.18,97.92,34.91,101.31Z"/>
    <path class="cls-3"
          d="M64.61,110.76l2.84-2.46a6.28,6.28,0,0,1,4.11-1.53h16a6,6,0,0,1,4,1.51l2.78,2.48V99.84a4.56,4.56,0,0,1,4.56-4.56h2.84V89a5.53,5.53,0,0,0-5.53-5.53h-26A5.53,5.53,0,0,0,64.61,89v21.8Z"/>
    <path class="cls-4"
          d="M27.62,89.49s-.1-6.05,5.84-6.05H59.12a5.63,5.63,0,0,1,2.35.49,5.18,5.18,0,0,1,3.15,4.81v4.16s-.3-7.21-4.71-7.3H32.13a3.43,3.43,0,0,0-1.89.54,6.26,6.26,0,0,0-2.62,5.11Z"/>
    <path class="cls-4"
          d="M64.64,89.49s-.1-6.05,5.84-6.05H96.14a5.63,5.63,0,0,1,2.35.49,5.18,5.18,0,0,1,3.15,4.81v4.16s-.3-7.21-4.71-7.3H69.15a3.43,3.43,0,0,0-1.89.54,6.26,6.26,0,0,0-2.62,5.11Z"/>
    <path class="cls-4"
          d="M114,119.42h5a2,2,0,0,1,2,2v11.16a0,0,0,0,1,0,0H112a0,0,0,0,1,0,0V121.37A2,2,0,0,1,114,119.42Z"/>
    <rect class="cls-3" x="13.95" y="22.34" width="53.78" height="2.68"/>
    <circle class="cls-4" cx="53.02" cy="70.09" r="7.55"/>
    <path class="cls-4"
          d="M46.67,77.24s5.35,7,12.77.34c0,0,6.8,1.37,11.33,12.49,0,0,2.4,6.52-3.71,4.6l-2.35-1.15a.82.82,0,0,0-1.12.42l-.23.56a.57.57,0,0,0,.23.7,22.47,22.47,0,0,1,2.46,1.87,4.92,4.92,0,0,1,1.07,4.15,6.15,6.15,0,0,1-1.65,3,6,6,0,0,1-1.36,1.11c-.33.18-1,.25-1.2.54s.06.94.27,1.53c2,5.42,1.58,11,.08,16.43-.64,2.33-1.45,5.9-3.26,7.58-2.63,2.43-7.43,1.2-7.17-2.8a9.19,9.19,0,0,1,.79-2.85,35.63,35.63,0,0,0,2.21-7.19,16,16,0,0,0,.18-6.22c-.41-1.83-1.76-4.26-3.77-4.65a10.74,10.74,0,0,0-2.15-.07c-6.19.08-14.13-4.34-13.35-11.47,0-.34.09-.67.1-1,0-1-.4-2-.44-3a20.71,20.71,0,0,1,2.89-10.74,9.84,9.84,0,0,1,2.93-3.55C43,77.35,45.86,76.18,46.67,77.24Z"/>
    <path class="cls-4"
          d="M49.54,95s-10.48-2.38-12.13-.16c0,0-2.41,5.84,3.52,7.24L62.51,106s5.79-1.47,4.59-7C67.1,99,68.38,97.65,49.54,95Z"/>
    <path class="cls-5"
          d="M64.93,84.13l2.32,3.52a.33.33,0,0,1-.41.49l-5.48-2.32a3.45,3.45,0,0,0-3.51.35,2.78,2.78,0,0,0-.76,1.61,3.4,3.4,0,0,0,2,3.85l4.7,1.88"/>
</svg>