<svg id="Layer_1" data-name="Layer 1" xmlns="http://www.w3.org/2000/svg" viewBox="0 0 150 150">
    <defs>
        <style>
            .cls-1{fill:#fff;}.cls-1,.cls-2,.cls-3{stroke:#f06236;stroke-width:1.5px;}.cls-1,.cls-2,.cls-3,.cls-5{stroke-miterlimit:10;}.cls-2,.cls-4{fill:#f3815e;}.cls-3,.cls-5{fill:none;}.cls-3{stroke-linecap:round;}.cls-5{stroke:#123842;}
        </style>
    </defs>
    <path class="cls-1"
          d="M62.1,99.32c-3.64-.18-10.82.33-14.06-1v6.51H61.77c1.61,0,3.22,0,4.84,0a3.78,3.78,0,0,1,4.1,4.09c0,6.74-.05,13.47,0,20.21a3.75,3.75,0,0,1-5.45,3.49,3.27,3.27,0,0,1-2-3.19c0-1.94,0-3.89,0-5.83q0-5.3,0-10.6c0-.2,0-.4,0-.68H44.53a3.76,3.76,0,0,1-4-4c0-3.91,0-7.81,0-11.72,0-3.08,0-6.16.05-9.24,0-1.67,0-3.34,0-5a3.52,3.52,0,0,1,3.72-3.75A3.47,3.47,0,0,1,48,82.36a6.25,6.25,0,0,0,1.26,4.15c1.66,2.36,3.15,4.85,4.73,7.26,2.28.46,5.5,1.1,8.65,1.41A2.08,2.08,0,1,1,62.1,99.32Z"/>
    <path class="cls-2" d="M61.75,133H58.18l-1.45-13.18H39l-1.27,13.17H33.23V78.67h2.86l3.18,34.65H61.75Z"/>
    <path class="cls-1" d="M45.1,64.71a6.38,6.38,0,1,1-6.42,6.35A6.38,6.38,0,0,1,45.1,64.71Z"/>
    <path class="cls-1"
          d="M94.18,95.19c3.15-.31,6.94-1.23,8.61-1.41,1.58-2.42,3.07-4.9,4.73-7.26a6.25,6.25,0,0,0,1.26-4.15,3.47,3.47,0,0,1,3.72-3.73,3.52,3.52,0,0,1,3.72,3.75c0,1.67,0,3.34,0,5,0,3.08,0,6.16.05,9.24,0,3.91,0,7.81,0,11.72a3.76,3.76,0,0,1-4,4H93.51c0,.27,0,.47,0,.68q0,5.3,0,10.6c0,1.94,0,3.89,0,5.83a3.27,3.27,0,0,1-2,3.19A3.75,3.75,0,0,1,86,129.14c.08-6.74,0-13.47,0-20.21a3.78,3.78,0,0,1,4.1-4.09c1.61,0,3.22,0,4.84,0h13.74V98.34c-5.26,1.27-10.38.81-14,1A2.08,2.08,0,1,1,94.18,95.19Z"/>
    <path class="cls-2" d="M95,133h3.57L100,119.78h17.74L119,132.94h4.49V78.67h-2.86l-3.18,34.65H95Z"/>
    <path class="cls-1" d="M111.64,64.71a6.38,6.38,0,1,0,6.42,6.35A6.38,6.38,0,0,0,111.64,64.71Z"/>
    <rect class="cls-1" x="74.61" y="103.54" width="6.94" height="29.14"/>
    <rect class="cls-1" x="53.67" y="99.33" width="48.83" height="4.22"/>
    <line class="cls-3" x1="2.85" y1="132.95" x2="146.87" y2="132.95"/>
    <path class="cls-4"
          d="M131.26,57.13H119.39c-.82,0-1.48,1.1-1.48,1.92v1.48c0,.29-.09.36-.25.61l-2.43,2.33,1.2-.4a1.48,1.48,0,0,1,1.48,1.48A1.49,1.49,0,0,0,119.39,66h11.87c.82,0,1.48-.23,1.48-1.05V59C132.74,58.22,132.08,57.13,131.26,57.13Z"/>
    <path class="cls-4"
          d="M45.15,61.94c.55,0,1-.75,1-1.3v-4c0-.55-.45-.71-1-.71H33.08c-.55,0-1,.16-1,.71v4c0,.55.45,1.3,1,1.3H39.4c.32,0,.61,0,.8.26l1.21,1.46v-1c0-.56.45-.71,1-.71Z"/>
    <circle class="cls-4" cx="76.27" cy="60.25" r="5.03"/>
    <path class="cls-4"
          d="M81.63,60.38l.57-.12c.48-.11,1.08-.08,1.41-.37s.08-.9.11-1.37a.91.91,0,0,1,1-.94c2.26,0,4.52,0,6.78,0a.77.77,0,0,1,.83.87c0,1.64,0,3.29,0,4.93a.88.88,0,0,1-1,1c-2.12,0-4.24,0-6.36,0-.82,0-1.34-.46-1.21-1.24a2,2,0,0,0-1.63-2.48A5,5,0,0,1,81.63,60.38Z"/>
    <path class="cls-4"
          d="M79.47,66.25A21,21,0,0,1,82,67.86,3.14,3.14,0,0,1,83.17,71c0,.42-.31.35-.56.35H78.68c-2.88,0-5.77,0-8.65,0-.5,0-.59-.16-.65-.64-.23-1.72.7-2.73,2-3.55.58-.37,1.23-1,1.8-.92S79.11,66.06,79.47,66.25Z"/>
    <path class="cls-1"
          d="M98.35,76.34h-40a2,2,0,0,1-2-2V51.18a2,2,0,0,1,2-2h40a2,2,0,0,1,2,2V74.34A2,2,0,0,1,98.35,76.34ZM98,51.4H58.55V71.47H98Z"/>
    <path class="cls-5"
          d="M78.35,72.88h.05a1,1,0,0,1,.94,1.06.94.94,0,0,1-1,.93,1,1,0,0,1-1-1.05A1,1,0,0,1,78.35,72.88Z"/>
    <path class="cls-2"
          d="M76.59,95h3.67a.37.37,0,0,1,.37.37v2.46a1.48,1.48,0,0,1-1.48,1.48H77.71a1.48,1.48,0,0,1-1.48-1.48V95.39A.37.37,0,0,1,76.59,95Z"/>
    <path class="cls-1"
          d="M83.73,96.67H91.4a0,0,0,0,1,0,0v1.52a1.06,1.06,0,0,1-1.06,1.06H84.79a1.06,1.06,0,0,1-1.06-1.06V96.67a0,0,0,0,1,0,0Z"/>
    <path class="cls-1"
          d="M65.35,96.67H73a0,0,0,0,1,0,0v1.52A1.06,1.06,0,0,1,72,99.24H66.41a1.06,1.06,0,0,1-1.06-1.06V96.67A0,0,0,0,1,65.35,96.67Z"/>
    <path class="cls-1"
          d="M78.91,95s.29-4,3.2-4.21c0,0,.63-2.22,3.28-.17,0,0-2.06,2.32-3.24.25C82.15,90.89,79.86,90.7,78.91,95Z"/>
    <path class="cls-1"
          d="M77.95,95s.34-4.13-1.4-6c0,0,1.52-1.86-1.74-2.82,0,0-.89,3.18,1.59,2.89C76.39,89.06,78,90.11,77.95,95Z"/>
    <rect class="cls-2" x="74.61" y="129.89" width="6.94" height="2.79"/>
    <circle class="cls-2" cx="31.62" cy="17.39" r="4.79"/>
    <circle class="cls-1" cx="132.46" cy="71.43" r="1.93"/>
    <circle class="cls-2" cx="24.51" cy="80.49" r="1.93"/>
    <circle class="cls-2" cx="132.46" cy="40.47" r="3.23"/>
    <circle class="cls-1" cx="66.84" cy="28.73" r="1.93"/>
    <circle class="cls-2" cx="110.31" cy="11.64" r="1.93"/>
    <circle class="cls-1" cx="16.24" cy="47.75" r="1.93"/>
</svg>