<svg width="1920" height="530" viewBox="0 0 1920 530" fill="none" xmlns="http://www.w3.org/2000/svg">
<g clip-path="url(#clip0_1330_11210)">
<path d="M440.207 256.851L440.082 256.894L393.183 320.059L299.511 351.601L299.386 351.643L252.487 414.808L158.815 446.351L158.69 446.394L111.791 509.559L48.814 530.763H50.7L112.29 510.026L112.416 509.983L159.316 446.818L252.987 415.275L253.113 415.231L300.013 352.066L393.682 320.524L393.807 320.484L440.708 257.317L534.38 225.776L534.505 225.733L565.366 184.17V182.898L533.878 225.31L440.207 256.851ZM428.483 248.957L428.357 248.999L381.458 312.164L287.788 343.708L287.662 343.747L240.762 406.916L147.09 438.455L146.965 438.498L100.067 501.664L13.643 530.764H15.532L100.571 502.13L100.696 502.088L147.594 438.923L241.267 407.381L241.392 407.34L288.291 344.172L381.964 312.634L382.089 312.59L428.988 249.424L522.66 217.883L522.786 217.84L565.369 160.485V159.212L522.156 217.417L428.483 248.957ZM475.256 91.083L428.358 154.25L334.685 185.791L334.56 185.833L287.66 248.997L193.987 280.539L193.861 280.581L146.963 343.747L53.29 375.291L53.164 375.33L6.26601 438.498L-87.408 470.037L-87.533 470.08L-132.591 530.763H-131.644L-86.907 470.502L6.76601 438.963L6.89101 438.92L53.789 375.752L147.462 344.213L147.588 344.169L194.486 281.001L288.159 249.462L288.284 249.421L335.185 186.253L428.857 154.712L428.982 154.671L475.879 91.504L565.365 61.375V60.739L475.382 91.04L475.256 91.083ZM486.981 98.979L440.082 162.144L346.41 193.686L346.285 193.728L299.386 256.895L205.713 288.435L205.587 288.475L158.69 351.644L65.015 383.184L64.89 383.226L17.994 446.395L-75.682 477.934L-75.808 477.977L-115.001 530.764H-114.058L-75.18 478.401L18.493 446.858L18.619 446.819L65.516 383.649L159.191 352.11L159.316 352.067L206.212 288.9L299.887 257.36L300.012 257.318L346.912 194.151L440.583 162.61L440.709 162.567L487.608 99.4L565.367 73.217V72.582L487.104 98.934L486.981 98.979ZM545.604 327.957L498.707 391.122L405.033 422.665L404.908 422.706L358.008 485.873L264.336 517.412L264.211 517.456L254.331 530.764H255.274L264.839 517.88L358.511 486.337L358.637 486.298L405.536 423.128L499.209 391.589L499.335 391.546L546.232 328.381L565.367 321.935V321.299L545.727 327.913L545.604 327.957ZM557.329 335.852L510.431 399.021L416.758 430.559L416.632 430.603L369.735 493.767L276.063 525.311L275.936 525.353L271.916 530.766H272.862L276.565 525.778L370.238 494.236L370.363 494.193L417.262 431.028L510.935 399.485L511.06 399.444L557.958 336.277L565.368 333.784V333.145L557.455 335.812L557.329 335.852ZM463.657 272.644L463.531 272.687L416.632 335.852L322.96 367.394L322.834 367.438L275.935 430.603L182.265 462.144L182.14 462.185L135.239 525.353L119.163 530.766H121.052L135.743 525.818L135.869 525.778L182.766 462.611L276.439 431.071L276.564 431.028L323.463 367.859L417.135 336.32L417.261 336.277L464.16 273.112L557.832 241.571L557.958 241.528L565.367 231.548V230.276L557.329 241.105L463.657 272.644ZM451.931 264.748L451.807 264.791L404.909 327.958L311.234 359.499L311.109 359.541L264.212 422.707L170.54 454.249L170.414 454.292L123.516 517.457L83.989 530.765H85.878L124.019 517.923L124.144 517.881L171.043 454.714L264.716 423.173L264.841 423.129L311.74 359.965L405.412 328.421L405.538 328.382L452.437 265.215L546.109 233.674L546.234 233.632L565.371 207.859V206.587L545.606 233.209L451.931 264.748ZM533.879 130.563L486.982 193.729L393.309 225.269L393.183 225.312L346.284 288.476L252.612 320.019L252.484 320.063L205.587 383.228L111.915 414.769L111.789 414.81L64.89 477.978L-28.782 509.518L-28.908 509.56L-44.653 530.764H-43.708L-28.278 509.984L65.394 478.442L65.519 478.401L112.418 415.234L206.09 383.694L206.215 383.651L253.116 320.485L346.789 288.944L346.914 288.9L393.81 225.735L487.485 194.194L487.61 194.152L534.509 130.987L565.368 120.595V119.958L534.006 130.519L533.879 130.563ZM557.329 146.353L510.431 209.52L416.758 241.061L416.632 241.103L369.735 304.268L276.063 335.812L275.936 335.851L229.037 399.02L135.365 430.559L135.239 430.602L88.34 493.767L-5.33501 525.31L-5.46001 525.352L-9.479 530.764H-8.536L-4.832 525.777L88.84 494.235L88.965 494.191L135.865 431.026L229.537 399.483L229.663 399.444L276.562 336.275L370.234 304.736L370.359 304.692L417.258 241.528L510.931 209.986L511.056 209.943L557.955 146.777L565.365 144.282V143.646L557.452 146.311L557.329 146.353ZM545.604 138.457L498.705 201.624L405.033 233.165L404.908 233.208L358.008 296.374L264.336 327.916L264.211 327.959L217.313 391.123L123.639 422.666L123.514 422.706L76.616 485.875L-17.058 517.414L-17.182 517.457L-27.064 530.766H-26.118L-16.553 517.881L77.119 486.338L77.244 486.299L124.142 423.13L217.815 391.591L217.939 391.548L264.838 328.382L358.51 296.841L358.636 296.797L405.535 233.633L499.208 202.091L499.334 202.049L546.231 138.882L565.366 132.44V131.803L545.726 138.417L545.604 138.457ZM498.705 106.875L451.805 170.04L358.132 201.581L358.007 201.624L311.109 264.791L217.436 296.332L217.311 296.373L170.414 359.538L76.739 391.08L76.614 391.122L29.716 454.291L-63.958 485.83L-64.083 485.873L-97.414 530.764H-96.469L-63.454 486.298L30.218 454.754L30.344 454.713L77.243 391.546L170.916 360.003L171.041 359.964L217.939 296.797L311.613 265.255L311.737 265.213L358.635 202.046L452.308 170.505L452.434 170.463L499.333 107.296L565.365 85.062V84.428L498.828 106.832L498.705 106.875ZM463.657 83.145L463.531 83.187L416.632 146.353L322.96 177.894L322.834 177.937L275.935 241.104L182.265 272.644L182.14 272.687L135.239 335.852L41.565 367.394L41.44 367.438L-5.457 430.603L-99.132 462.144L-99.256 462.185L-146.153 525.353L-162.228 530.766H-160.34L-145.65 525.818L-145.525 525.778L-98.628 462.611L-4.95399 431.071L-4.828 431.028L42.069 367.859L135.743 336.32L135.869 336.277L182.768 273.112L276.438 241.571L276.566 241.528L323.464 178.361L417.136 146.819L417.262 146.777L464.159 83.611L557.831 52.07L557.957 52.027L565.366 42.047V40.776L557.328 51.605L463.657 83.145ZM510.431 114.77L463.532 177.937L369.857 209.478L369.732 209.521L322.834 272.688L229.16 304.227L229.035 304.27L182.138 367.438L88.465 398.979L88.339 399.022L41.44 462.186L-52.232 493.73L-52.358 493.768L-79.826 530.766H-78.88L-51.728 494.193L41.944 462.654L42.069 462.611L88.967 399.444L182.642 367.902L182.767 367.859L229.665 304.694L323.338 273.152L323.463 273.112L370.36 209.945L464.035 178.403L464.16 178.361L511.058 115.195L565.368 96.907V96.271L510.554 114.729L510.431 114.77ZM533.879 320.063L486.982 383.228L393.309 414.769L393.183 414.81L346.287 477.978L252.614 509.518L252.488 509.56L236.742 530.764H237.688L253.118 509.984L346.791 478.442L346.916 478.401L393.812 415.234L487.486 383.694L487.613 383.651L534.509 320.485L565.371 310.094V309.457L534.008 320.016L533.879 320.063ZM545.604 43.708L451.93 75.249L451.806 75.292L404.908 138.459L311.233 169.999L311.108 170.041L264.211 233.208L170.539 264.748L170.413 264.791L123.515 327.958L29.842 359.499L29.717 359.541L-17.186 422.707L-110.859 454.249L-110.985 454.292L-157.881 517.457L-197.409 530.765H-195.52L-157.379 517.923L-157.254 517.881L-110.355 454.714L-16.682 423.173L-16.556 423.129L30.34 359.965L124.014 328.421L124.139 328.382L171.038 265.215L264.711 233.674L264.836 233.632L311.733 170.465L405.407 138.925L405.532 138.882L452.436 75.717L546.106 44.176L546.234 44.133L565.369 18.361V17.09L545.604 43.708ZM522.153 122.667L475.256 185.832L381.583 217.375L381.457 217.417L334.561 280.581L240.888 312.122L240.761 312.166L193.864 375.331L100.191 406.873L100.066 406.916L53.166 470.083L-40.506 501.625L-40.631 501.665L-62.237 530.766H-61.292L-40 502.088L53.671 470.548L53.798 470.505L100.697 407.34L194.369 375.798L194.494 375.755L241.395 312.59L335.065 281.047L335.193 281.004L382.089 217.84L475.762 186.299L475.887 186.256L522.786 123.091L565.371 108.753V108.117L522.283 122.625L522.153 122.667ZM498.705 485.872L465.372 530.763H466.318L499.335 486.296L565.367 464.06V463.424L498.83 485.827L498.705 485.872ZM510.431 493.766L482.962 530.763H483.907L511.06 494.19L565.37 475.905V475.267L510.556 493.724L510.431 493.766ZM475.256 470.08L430.199 530.763H431.144L475.884 470.502L565.37 440.375V439.735L475.384 470.036L475.256 470.08ZM522.153 501.662L500.548 530.763H501.492L522.783 502.085L565.366 487.747V487.111L522.278 501.622L522.153 501.662ZM463.657 462.143L463.531 462.183L416.632 525.352L400.557 530.764H402.446L417.136 525.817L417.262 525.777L464.161 462.609L557.833 431.071L557.959 431.026L565.368 421.047V419.776L557.33 430.604L463.657 462.143ZM557.329 525.352L553.31 530.764H554.254L557.958 525.777L565.367 523.281V522.645L557.455 525.31L557.329 525.352ZM545.604 517.454L535.723 530.763H536.668L546.234 517.879L565.369 511.437V510.799L545.729 517.409L545.604 517.454ZM522.153 312.164L475.256 375.33L381.583 406.873L381.457 406.916L334.56 470.08L240.887 501.623L240.76 501.664L219.155 530.764H220.101L241.391 502.087L335.064 470.547L335.192 470.503L382.088 407.338L475.761 375.795L475.886 375.753L522.785 312.587L565.37 298.25V297.614L522.282 312.121L522.153 312.164ZM533.879 509.559L518.136 530.763H519.08L534.507 509.983L565.369 499.593V498.954L534.006 509.515L533.879 509.559ZM451.931 454.246L451.807 454.29L404.909 517.454L365.383 530.763H367.272L405.411 517.92L405.537 517.879L452.436 454.712L546.106 423.17L546.234 423.127L565.369 397.355V396.084L545.604 422.703L451.931 454.246ZM486.981 288.476L440.082 351.646L346.409 383.183L346.284 383.225L299.385 446.394L205.712 477.933L205.586 477.976L166.394 530.763H167.337L206.215 478.4L299.888 446.857L300.015 446.818L346.913 383.648L440.585 352.109L440.711 352.066L487.608 288.899L565.367 262.716V262.081L487.105 288.434L486.981 288.476ZM510.431 304.27L463.532 367.438L369.857 398.977L369.732 399.021L322.834 462.185L229.16 493.728L229.035 493.767L201.568 530.764H202.513L229.665 494.191L323.338 462.653L323.463 462.609L370.36 399.444L464.035 367.901L464.16 367.859L511.058 304.692L565.368 286.407V285.767L510.554 304.224L510.431 304.27ZM498.705 296.372L451.807 359.54L358.133 391.08L358.008 391.122L311.11 454.291L217.437 485.83L217.312 485.873L183.979 530.764H184.925L217.941 486.298L311.615 454.754L311.739 454.713L358.637 391.546L452.31 360.003L452.436 359.964L499.335 296.794L565.367 274.559V273.924L498.83 296.329L498.705 296.372ZM475.256 280.581L428.358 343.747L334.685 375.291L334.56 375.33L287.66 438.498L193.987 470.037L193.861 470.08L148.806 530.764H149.751L194.491 470.503L288.164 438.965L288.289 438.923L335.188 375.753L428.861 344.213L428.986 344.171L475.883 281.001L565.367 250.875V250.239L475.383 280.54L475.256 280.581ZM440.207 446.351L440.082 446.394L393.183 509.559L330.208 530.763H332.097L393.684 510.026L393.809 509.983L440.71 446.818L534.382 415.275L534.507 415.231L565.368 373.668V372.398L533.88 414.807L440.207 446.351ZM428.483 438.453L428.357 438.495L381.458 501.662L295.035 530.763H296.924L381.961 502.129L382.086 502.087L428.985 438.923L522.657 407.38L522.783 407.338L565.366 349.983V348.713L522.153 406.916L428.483 438.453ZM486.981 477.976L447.787 530.763H448.73L487.611 478.4L565.37 452.218V451.582L487.107 477.932L486.981 477.976ZM-168.978 225.734L-75.306 194.193L-75.181 194.151L-28.281 130.986L65.391 99.444L65.516 99.401L112.417 36.235L206.087 4.695L206.212 4.652L210.234 -0.764998H209.291L205.583 4.228L111.911 35.767L111.785 35.81L64.887 98.978L-28.785 130.519L-28.911 130.562L-75.809 193.728L-169.481 225.268L-169.606 225.311L-216.507 288.476L-223.918 290.973V291.612L-215.876 288.902L-168.978 225.734ZM-192.428 304.691L-145.53 241.527L-51.858 209.985L-51.732 209.942L-4.834 146.776L88.838 115.236L88.963 115.192L135.862 52.026L229.535 20.486L229.661 20.445L245.409 -0.763998H244.462L229.031 20.022L135.361 51.562L135.235 51.604L88.336 114.771L-5.336 146.311L-5.461 146.353L-52.361 209.52L-146.033 241.061L-146.158 241.103L-193.057 304.269L-223.919 314.66V315.297L-192.555 304.736L-192.428 304.691ZM-110.481 360.003L-110.355 359.964L-63.457 296.794L30.215 265.255L30.341 265.213L77.24 202.046L170.913 170.505L171.038 170.463L217.936 107.296L311.61 75.755L311.734 75.713L358.632 12.546L398.168 -0.765998H396.278L358.13 12.082L358.004 12.124L311.106 75.29L217.433 106.832L217.308 106.875L170.41 170.04L76.736 201.581L76.611 201.624L29.713 264.789L-63.961 296.331L-64.086 296.372L-110.986 359.54L-204.658 391.08L-204.783 391.122L-223.92 416.896V418.166L-204.154 391.546L-110.481 360.003ZM-122.205 352.11L-122.08 352.068L-75.182 288.899L18.491 257.359L18.617 257.317L65.514 194.15L159.189 162.609L159.314 162.566L206.21 99.4L299.885 67.859L300.012 67.817L346.91 4.651L362.996 -0.765998H361.107L346.407 4.185L346.282 4.229L299.381 67.394L205.709 98.935L205.583 98.978L158.686 162.143L65.011 193.685L64.886 193.727L17.99 256.892L-75.683 288.434L-75.809 288.474L-122.708 351.643L-216.381 383.183L-216.507 383.225L-223.918 393.209V394.479L-215.876 383.648L-122.205 352.11ZM-199.792 -0.762998H-201.682L-216.383 4.188L-216.509 4.232L-223.92 14.213V15.483L-215.878 4.655L-199.792 -0.762998ZM-157.254 328.381L-110.355 265.214L-16.682 233.673L-16.556 233.631L30.34 170.464L124.014 138.924L124.138 138.881L171.038 75.714L264.71 44.173L264.835 44.13L298.17 -0.764998H297.224L264.207 43.706L170.535 75.247L170.409 75.29L123.509 138.457L29.837 169.997L29.712 170.039L-17.186 233.206L-110.86 264.747L-110.986 264.79L-157.882 327.957L-223.918 350.189V350.829L-157.379 328.423L-157.254 328.381ZM-168.978 320.484L-122.081 257.318L-28.408 225.777L-28.282 225.734L18.616 162.567L112.288 131.027L112.414 130.985L159.312 67.818L252.985 36.276L253.111 36.234L280.581 -0.764998H279.636L252.48 35.812L158.809 67.353L158.684 67.395L111.785 130.563L18.113 162.103L17.988 162.145L-28.912 225.312L-122.586 256.852L-122.711 256.894L-169.607 320.062L-223.92 338.346V338.982L-169.105 320.525L-168.978 320.484ZM-180.703 312.587L-133.804 249.423L-40.131 217.882L-40.006 217.839L6.892 154.673L100.566 123.131L100.691 123.088L147.589 59.922L241.264 28.382L241.389 28.338L262.997 -0.765998H262.053L240.758 27.915L147.086 59.455L146.961 59.498L100.063 122.665L6.39 154.204L6.26401 154.247L-40.635 217.414L-134.308 248.955L-134.434 248.997L-181.33 312.163L-223.917 326.502V327.138L-180.827 312.631L-180.703 312.587ZM-192.428 494.189L-145.529 431.024L-51.858 399.481L-51.732 399.44L-4.834 336.273L88.838 304.733L88.963 304.69L135.862 241.525L229.535 209.983L229.661 209.94L276.558 146.774L370.231 115.234L370.356 115.19L417.255 52.024L510.928 20.484L511.053 20.443L526.801 -0.765998H525.855L510.425 20.02L416.755 51.561L416.629 51.603L369.731 114.77L276.06 146.31L275.933 146.352L229.035 209.519L135.362 241.059L135.236 241.101L88.337 304.266L-5.33501 335.81L-5.46001 335.849L-52.36 399.018L-146.032 430.557L-146.157 430.6L-193.056 493.765L-223.918 504.157V504.794L-192.554 494.234L-192.428 494.189ZM-204.154 486.295L-157.256 423.127L-63.583 391.588L-63.457 391.545L-16.557 328.379L77.115 296.836L77.24 296.794L124.138 233.628L217.809 202.088L217.936 202.046L264.834 138.88L358.506 107.339L358.632 107.296L405.531 44.129L499.205 12.589L499.331 12.546L509.215 -0.765998H508.269L498.702 12.122L405.029 43.663L404.904 43.705L358.004 106.872L264.332 138.412L264.207 138.455L217.308 201.622L123.636 233.163L123.511 233.206L76.612 296.372L-17.062 327.914L-17.187 327.957L-64.085 391.122L-157.757 422.665L-157.883 422.706L-204.781 485.873L-223.918 492.315V492.952L-204.277 486.338L-204.154 486.295ZM-168.978 415.23L-75.306 383.691L-75.181 383.647L-28.281 320.483L65.391 288.941L65.516 288.898L112.415 225.732L206.087 194.191L206.212 194.149L253.113 130.984L346.786 99.442L346.911 99.399L393.807 36.233L487.481 4.693L487.608 4.65L491.628 -0.766998H490.685L486.979 4.226L393.306 35.765L393.18 35.808L346.284 98.975L252.609 130.516L252.484 130.56L205.584 193.725L111.914 225.266L111.788 225.309L64.891 288.476L-28.781 320.019L-28.907 320.063L-75.805 383.228L-169.477 414.769L-169.602 414.81L-216.504 477.978L-223.913 480.473V481.111L-215.871 478.403L-168.978 415.23ZM-98.756 367.9L-98.631 367.858L-51.731 304.691L41.941 273.148L42.066 273.109L88.964 209.942L182.64 178.401L182.765 178.359L229.663 115.192L323.336 83.652L323.461 83.609L370.358 20.444L433.344 -0.764998H431.456L369.855 19.977L369.73 20.02L322.831 83.185L229.158 114.726L229.033 114.768L182.137 177.935L88.463 209.476L88.336 209.519L41.438 272.686L-52.234 304.226L-52.36 304.269L-99.258 367.437L-192.931 398.976L-193.056 399.02L-223.918 440.583V441.854L-192.428 399.441L-98.756 367.9ZM-168.978 509.982L-122.081 446.817L-28.408 415.274L-28.282 415.23L18.616 352.065L112.288 320.523L112.414 320.483L159.314 257.316L252.985 225.775L253.111 225.732L300.008 162.565L393.68 131.025L393.805 130.983L440.706 67.816L534.378 36.274L534.503 36.232L561.976 -0.766998H561.03L533.878 35.811L440.206 67.352L440.081 67.394L393.182 130.562L299.51 162.102L299.385 162.144L252.486 225.311L158.814 256.851L158.689 256.893L111.788 320.061L18.117 351.6L17.992 351.644L-28.908 414.808L-122.582 446.349L-122.707 446.394L-169.603 509.558L-223.917 527.845V528.481L-169.102 510.024L-168.978 509.982ZM-87.033 375.795L-86.907 375.753L-40.008 312.587L53.664 281.045L53.79 281.001L100.689 217.838L194.362 186.297L194.487 186.254L241.385 123.089L335.058 91.548L335.186 91.504L382.083 28.339L468.517 -0.764998H466.629L381.579 27.873L381.453 27.916L334.555 91.082L240.883 122.624L240.757 122.667L193.86 185.832L100.187 217.373L100.062 217.415L53.162 280.581L-40.51 312.121L-40.635 312.164L-87.533 375.33L-181.208 406.87L-181.333 406.913L-223.92 464.269V465.54L-180.705 407.337L-87.033 375.795ZM-145.529 336.276L-98.632 273.109L-4.959 241.568L-4.83301 241.525L42.064 178.358L135.738 146.817L135.863 146.775L182.761 83.609L276.434 52.068L276.559 52.025L315.753 -0.764998H314.81L275.929 51.603L182.259 83.145L182.133 83.187L135.234 146.353L41.56 177.894L41.435 177.937L-5.46201 241.104L-99.137 272.644L-99.261 272.687L-146.158 335.852L-223.918 362.038V362.674L-145.654 336.32L-145.529 336.276ZM-180.703 502.085L-133.804 438.92L-40.131 407.378L-40.006 407.337L6.892 344.169L100.566 312.631L100.691 312.587L147.589 249.421L241.264 217.88L241.389 217.837L288.286 154.671L381.959 123.129L382.084 123.086L428.983 59.921L522.657 28.383L522.783 28.34L544.392 -0.763998H543.448L522.153 27.917L428.48 59.457L428.355 59.5L381.456 122.666L287.786 154.207L287.66 154.25L240.76 217.417L147.088 248.958L146.963 249L100.065 312.165L6.392 343.708L6.26601 343.747L-40.633 406.916L-134.306 438.455L-134.432 438.498L-181.33 501.662L-223.917 515.999V516.637L-180.827 502.127L-180.703 502.085ZM-204.154 296.794L-157.256 233.63L-63.583 202.089L-63.457 202.047L-16.557 138.88L77.115 107.339L77.24 107.296L124.138 44.129L217.809 12.589L217.936 12.546L227.819 -0.765998H226.874L217.306 12.122L123.634 43.663L123.509 43.705L76.612 106.873L-17.062 138.414L-17.187 138.457L-64.086 201.624L-157.758 233.165L-157.884 233.208L-204.783 296.374L-223.92 302.816V303.455L-204.278 296.843L-204.154 296.794ZM-180.703 123.089L-133.804 59.922L-40.131 28.383L-40.006 28.34L-18.398 -0.763998H-19.341L-40.635 27.917L-134.308 59.458L-134.434 59.501L-181.33 122.668L-223.917 137.006V137.642L-180.827 123.133L-180.703 123.089ZM-157.254 138.882L-110.355 75.715L-16.682 44.174L-16.556 44.131L16.777 -0.762998H15.832L-17.186 43.708L-110.86 75.249L-110.986 75.292L-157.882 138.458L-223.918 160.693V161.33L-157.379 138.925L-157.254 138.882ZM-145.529 146.776L-98.631 83.61L-4.95801 52.07L-4.83099 52.027L34.365 -0.762998H33.42L-5.459 51.604L-99.134 83.144L-99.258 83.186L-146.155 146.352L-223.917 172.535V173.171L-145.653 146.818L-145.529 146.776ZM-168.978 130.987L-122.081 67.82L-28.408 36.278L-28.282 36.236L-0.811996 -0.762998H-1.757L-28.91 35.812L-122.584 67.353L-122.709 67.395L-169.606 130.563L-223.918 148.849V149.485L-169.103 131.029L-168.978 130.987ZM-133.804 154.674L-86.906 91.507L6.767 59.965L6.892 59.922L51.952 -0.764998H51.006L6.26401 59.499L-87.408 91.04L-87.533 91.082L-134.433 154.249L-223.918 184.38V185.016L-133.931 154.715L-133.804 154.674ZM-164.616 -0.762998H-166.505L-204.658 12.084L-204.783 12.125L-223.919 37.898V39.169L-204.153 12.548L-164.616 -0.762998ZM-94.269 -0.762998H-96.159L-181.207 27.875L-181.332 27.918L-223.919 85.273V86.545L-180.704 28.341L-94.269 -0.762998ZM-129.443 -0.762998H-131.332L-192.932 19.979L-193.057 20.022L-223.918 61.586V62.857L-192.428 20.446L-129.443 -0.762998ZM-122.205 162.61L-122.08 162.567L-75.182 99.401L18.491 67.86L18.617 67.818L65.516 4.653L81.603 -0.763998H79.714L65.012 4.186L64.887 4.23L17.99 67.395L-75.683 98.936L-75.809 98.979L-122.708 162.144L-216.38 193.686L-216.506 193.728L-223.917 203.709V204.981L-215.875 194.15L-122.205 162.61ZM-192.428 115.193L-145.53 52.027L-51.858 20.487L-51.732 20.446L-35.986 -0.762998H-36.93L-52.362 20.023L-146.034 51.563L-146.159 51.605L-193.058 114.771L-223.919 125.161V125.797L-192.555 115.237L-192.428 115.193ZM-87.033 186.299L-86.907 186.256L-40.008 123.091L53.665 91.55L53.791 91.507L100.69 28.341L187.125 -0.762998H185.236L100.188 27.875L100.063 27.918L53.163 91.084L-40.509 122.625L-40.634 122.668L-87.532 185.833L-181.205 217.374L-181.33 217.416L-223.917 274.773V276.043L-180.702 217.839L-87.033 186.299ZM-110.481 170.506L-110.355 170.464L-63.457 107.297L30.215 75.756L30.341 75.714L77.24 12.547L116.774 -0.764998H114.886L76.735 12.082L76.61 12.124L29.711 75.29L-63.963 106.832L-64.088 106.875L-110.988 170.04L-204.66 201.581L-204.785 201.624L-223.922 227.397V228.668L-204.156 202.046L-110.481 170.506ZM-98.756 178.402L-98.631 178.36L-51.729 115.193L41.942 83.653L42.067 83.61L88.965 20.445L151.952 -0.763998H150.063L88.464 19.978L88.338 20.021L41.439 83.186L-52.233 114.727L-52.359 114.769L-99.257 177.936L-192.93 209.477L-193.055 209.52L-223.917 251.084V252.357L-192.427 209.944L-98.756 178.402ZM-204.154 107.298L-157.256 44.131L-63.583 12.591L-63.457 12.548L-53.573 -0.763998H-54.518L-64.086 12.124L-157.756 43.665L-157.882 43.707L-204.782 106.874L-223.919 113.316V113.952L-204.278 107.339L-204.154 107.298ZM-168.978 36.236L-75.306 4.696L-75.181 4.653L-71.159 -0.763998H-72.103L-75.809 4.229L-169.481 35.77L-169.606 35.812L-216.507 98.979L-223.918 101.473V102.11L-215.876 99.401L-168.978 36.236ZM-133.804 344.171L-86.906 281.001L6.767 249.464L6.892 249.423L53.79 186.255L147.463 154.714L147.588 154.673L194.487 91.506L288.16 59.965L288.285 59.923L333.345 -0.764998H332.4L287.658 59.5L193.986 91.04L193.86 91.082L146.962 154.249L53.289 185.79L53.163 185.832L6.26601 248.999L-87.408 280.539L-87.533 280.581L-134.433 343.747L-223.918 373.877V374.514L-133.931 344.213L-133.804 344.171Z" fill="white" fill-opacity=".2"/>
<path d="M596.854 225.311L565.367 182.899V184.171L596.227 225.734L596.352 225.777L690.024 257.318L736.924 320.485L737.049 320.525L830.718 352.067L877.618 415.232L877.744 415.276L971.414 446.819L1018.32 509.984L1018.44 510.027L1080.03 530.764H1081.92L1018.94 509.56L972.044 446.395L971.918 446.352L878.246 414.809L831.347 351.644L831.222 351.602L737.55 320.06L690.65 256.895L690.524 256.852L596.854 225.311ZM608.579 217.417L565.367 159.212V160.485L607.95 217.84L608.075 217.883L701.747 249.424L748.647 312.59L748.771 312.634L842.445 344.172L889.343 407.34L889.468 407.381L983.142 438.923L1030.04 502.088L1030.16 502.13L1115.2 530.764H1117.09L1030.67 501.664L983.768 438.498L983.644 438.455L889.972 406.916L843.071 343.747L842.945 343.708L749.274 312.164L702.375 248.999L702.249 248.957L608.579 217.417ZM655.351 91.04L565.367 60.738V61.374L654.853 91.503L701.749 154.67L701.874 154.711L795.546 186.252L842.447 249.42L842.572 249.461L936.245 281L983.143 344.168L983.269 344.212L1076.94 375.751L1123.84 438.919L1123.96 438.962L1217.64 470.501L1262.38 530.762H1263.32L1218.26 470.079L1218.14 470.036L1124.47 438.497L1077.57 375.329L1077.44 375.29L983.769 343.746L936.873 280.58L936.747 280.538L843.074 248.996L796.173 185.832L796.048 185.79L702.374 154.249L655.478 91.082L655.351 91.04ZM643.629 98.934L565.366 72.582V73.217L643.126 99.4L690.024 162.566L690.149 162.609L783.821 194.15L830.721 257.317L830.845 257.359L924.521 288.899L971.417 352.066L971.542 352.109L1065.22 383.648L1112.11 446.818L1112.24 446.857L1205.91 478.4L1244.79 530.763H1245.73L1206.54 477.976L1206.42 477.933L1112.74 446.394L1065.84 383.225L1065.72 383.183L972.043 351.643L925.146 288.474L925.02 288.434L831.347 256.894L784.447 193.727L784.322 193.685L690.65 162.143L643.751 98.978L643.629 98.934ZM585.003 327.913L565.362 321.299V321.935L584.498 328.381L631.395 391.546L631.521 391.589L725.194 423.128L772.094 486.298L772.22 486.337L865.892 517.88L875.457 530.764H876.4L866.52 517.456L866.395 517.412L772.723 485.873L725.823 422.706L725.698 422.665L632.024 391.122L585.127 327.957L585.003 327.913ZM573.278 335.812L565.364 333.145V333.784L572.774 336.277L619.672 399.444L619.797 399.485L713.471 431.028L760.37 494.193L760.495 494.236L854.168 525.778L857.871 530.766H858.818L854.798 525.353L854.671 525.311L761 493.767L714.101 430.603L713.976 430.559L620.302 399.021L573.404 335.852L573.278 335.812ZM573.405 241.104L565.367 230.275V231.547L572.775 241.527L572.901 241.57L666.573 273.111L713.472 336.276L713.597 336.319L807.269 367.858L854.169 431.027L854.294 431.07L947.968 462.61L994.866 525.777L994.992 525.817L1009.68 530.765H1011.57L995.496 525.352L948.595 462.184L948.47 462.143L854.8 430.602L807.9 367.438L807.774 367.394L714.102 335.852L667.204 272.687L667.078 272.644L573.405 241.104ZM585.131 233.207L565.365 206.585V207.857L584.502 233.63L584.627 233.672L678.299 265.213L725.197 328.38L725.323 328.419L818.995 359.963L865.895 423.127L866.019 423.171L959.693 454.712L1006.59 517.879L1006.72 517.921L1044.86 530.763H1046.75L1007.22 517.455L960.321 454.29L960.195 454.247L866.523 422.705L819.626 359.539L819.501 359.497L725.827 327.956L678.928 264.789L678.804 264.746L585.131 233.207ZM596.729 130.519L565.367 119.958V120.595L596.226 130.987L643.126 194.152L643.249 194.194L736.925 225.735L783.822 288.9L783.946 288.944L877.62 320.485L924.52 383.651L924.645 383.694L1018.32 415.234L1065.21 478.401L1065.34 478.442L1159.01 509.984L1174.44 530.764H1175.39L1159.64 509.56L1159.52 509.518L1065.84 477.978L1018.95 414.81L1018.82 414.769L925.149 383.228L878.25 320.063L878.123 320.019L784.451 288.476L737.553 225.312L737.426 225.269L643.753 193.729L596.855 130.563L596.729 130.519ZM573.28 146.31L565.366 143.645V144.281L572.776 146.776L619.674 209.942L619.799 209.985L713.472 241.527L760.372 304.691L760.497 304.735L854.169 336.274L901.068 399.443L901.193 399.482L994.865 431.025L1041.77 494.19L1041.89 494.234L1135.56 525.776L1139.27 530.763H1140.21L1136.19 525.351L1136.06 525.309L1042.39 493.765L995.494 430.6L995.367 430.557L901.696 399.018L854.8 335.85L854.673 335.811L761 304.267L714.101 241.102L713.976 241.06L620.302 209.519L573.404 146.352L573.28 146.31ZM585.003 138.417L565.362 131.803V132.44L584.498 138.882L631.395 202.049L631.521 202.091L725.194 233.633L772.094 296.797L772.22 296.841L865.892 328.382L912.79 391.548L912.915 391.591L1006.59 423.13L1053.48 486.299L1053.61 486.338L1147.28 517.881L1156.85 530.766H1157.79L1147.91 517.457L1147.79 517.414L1054.11 485.875L1007.22 422.706L1007.09 422.666L913.416 391.123L866.518 327.959L866.393 327.916L772.721 296.374L725.821 233.208L725.696 233.165L632.024 201.624L585.125 138.457L585.003 138.417ZM631.903 106.833L565.366 84.429V85.063L631.398 107.297L678.297 170.464L678.423 170.506L772.096 202.047L818.994 265.214L819.118 265.256L912.792 296.798L959.691 359.965L959.816 360.004L1053.49 391.547L1100.39 454.714L1100.51 454.755L1194.19 486.299L1227.2 530.765H1228.15L1194.81 485.874L1194.69 485.831L1101.02 454.292L1054.12 391.123L1053.99 391.081L960.319 359.538L913.422 296.373L913.297 296.332L819.623 264.791L772.725 201.624L772.599 201.581L678.927 170.04L632.027 106.875L631.903 106.833ZM573.405 51.604L565.367 40.775V42.046L572.775 52.026L572.901 52.069L666.573 83.61L713.47 146.776L713.596 146.818L807.268 178.36L854.166 241.527L854.293 241.57L947.964 273.111L994.864 336.276L994.989 336.319L1088.66 367.858L1135.56 431.027L1135.69 431.07L1229.36 462.61L1276.26 525.777L1276.38 525.817L1291.07 530.765H1292.96L1276.89 525.352L1229.99 462.184L1229.86 462.143L1136.19 430.602L1089.29 367.437L1089.17 367.393L995.495 335.851L948.594 272.686L948.469 272.643L854.799 241.103L807.9 177.937L807.774 177.894L714.102 146.353L667.204 83.187L667.078 83.145L573.405 51.604ZM620.177 114.729L565.363 96.271V96.907L619.674 115.195L666.573 178.361L666.697 178.403L760.372 209.945L807.269 273.112L807.394 273.152L901.068 304.694L947.966 367.859L948.091 367.902L1041.77 399.444L1088.67 462.611L1088.79 462.654L1182.46 494.193L1209.61 530.766H1210.56L1183.09 493.768L1182.96 493.73L1089.29 462.186L1042.4 399.022L1042.27 398.979L948.596 367.438L901.698 304.27L901.574 304.227L807.9 272.688L761 209.521L760.876 209.478L667.2 177.937L620.302 114.77L620.177 114.729ZM596.727 320.016L565.363 309.457V310.094L596.226 320.485L643.122 383.651L643.249 383.694L736.923 415.234L783.82 478.4L783.945 478.441L877.618 509.983L893.049 530.763H893.994L878.248 509.559L878.121 509.517L784.448 477.977L737.552 414.809L737.425 414.768L643.752 383.227L596.854 320.062L596.727 320.016ZM565.363 17.088V18.359L584.499 44.131L584.627 44.174L678.297 75.715L725.2 138.88L725.326 138.923L819 170.463L865.897 233.63L866.022 233.672L959.695 265.213L1006.59 328.38L1006.72 328.419L1100.39 359.963L1147.29 423.127L1147.41 423.171L1241.09 454.712L1287.99 517.879L1288.11 517.921L1326.25 530.763H1328.14L1288.61 517.455L1241.72 454.29L1241.59 454.247L1147.92 422.705L1101.02 359.539L1100.89 359.497L1007.22 327.956L960.32 264.789L960.194 264.746L866.522 233.206L819.625 170.039L819.5 169.997L725.826 138.457L678.927 75.29L678.803 75.247L585.129 43.706L565.363 17.088ZM608.454 122.625L565.365 108.117V108.753L607.95 123.091L654.849 186.256L654.974 186.299L748.647 217.84L795.543 281.004L795.671 281.047L889.342 312.59L936.243 375.755L936.367 375.798L1030.04 407.34L1076.94 470.505L1077.07 470.548L1170.74 502.088L1192.03 530.766H1192.97L1171.37 501.665L1171.24 501.625L1077.57 470.083L1030.67 406.916L1030.55 406.873L936.872 375.331L889.975 312.166L889.848 312.122L796.175 280.581L749.279 217.417L749.153 217.375L655.48 185.832L608.581 122.667L608.454 122.625ZM631.903 485.827L565.366 463.424V464.06L631.398 486.296L664.415 530.763H665.36L632.027 485.872L631.903 485.827ZM620.177 493.724L565.363 475.267V475.905L619.674 494.19L646.827 530.763H647.772L620.303 493.766L620.177 493.724ZM655.35 470.036L565.363 439.735V440.375L654.849 470.502L699.59 530.763H700.535L655.478 470.08L655.35 470.036ZM608.455 501.622L565.367 487.111V487.747L607.95 502.085L629.241 530.763H630.186L608.58 501.662L608.455 501.622ZM573.405 430.603L565.367 419.775V421.046L572.775 431.025L572.901 431.07L666.573 462.608L713.472 525.776L713.597 525.816L728.287 530.763H730.176L714.1 525.351L667.202 462.182L667.076 462.142L573.405 430.603ZM573.278 525.31L565.366 522.645V523.281L572.774 525.777L576.478 530.764H577.423L573.404 525.352L573.278 525.31ZM585.003 517.409L565.362 510.799V511.437L584.498 517.879L594.064 530.763H595.008L585.127 517.454L585.003 517.409ZM608.454 312.121L565.365 297.614V298.25L607.95 312.587L654.849 375.753L654.974 375.795L748.647 407.338L795.543 470.503L795.671 470.547L889.344 502.087L910.634 530.764H911.58L889.975 501.664L889.848 501.623L796.175 470.08L749.279 406.916L749.153 406.873L655.48 375.33L608.581 312.164L608.454 312.121ZM596.727 509.515L565.363 498.954V499.593L596.226 509.983L611.653 530.763H612.597L596.853 509.559L596.727 509.515ZM585.129 422.703L565.363 396.084V397.355L584.499 423.127L584.627 423.17L678.297 454.712L725.195 517.879L725.322 517.92L763.461 530.763H765.35L725.824 517.454L678.925 454.29L678.801 454.246L585.129 422.703ZM643.629 288.434L565.366 262.081V262.716L643.125 288.899L690.021 352.066L690.147 352.109L783.82 383.648L830.717 446.818L830.844 446.857L924.518 478.4L963.396 530.763H964.339L925.147 477.976L925.02 477.933L831.347 446.394L784.447 383.225L784.322 383.183L690.649 351.646L643.75 288.476L643.629 288.434ZM620.177 304.224L565.363 285.767V286.407L619.674 304.692L666.573 367.859L666.697 367.901L760.372 399.444L807.269 462.609L807.394 462.653L901.068 494.191L928.22 530.764H929.165L901.697 493.767L901.573 493.728L807.899 462.185L761 399.021L760.876 398.977L667.2 367.438L620.302 304.27L620.177 304.224ZM631.903 296.329L565.366 273.924V274.559L631.398 296.794L678.297 359.964L678.423 360.003L772.096 391.546L818.994 454.713L819.118 454.754L912.792 486.298L945.808 530.764H946.754L913.422 485.873L913.297 485.83L819.623 454.291L772.725 391.122L772.599 391.08L678.925 359.54L632.027 296.372L631.903 296.329ZM655.351 280.539L565.367 250.238V250.874L654.851 281L701.747 344.17L701.872 344.212L795.546 375.752L842.445 438.922L842.57 438.964L936.243 470.502L980.983 530.763H981.927L936.872 470.079L936.746 470.036L843.073 438.497L796.172 375.329L796.047 375.29L702.373 343.746L655.477 280.58L655.351 280.539ZM596.854 414.808L565.367 372.399V373.669L596.227 415.232L596.352 415.276L690.024 446.819L736.924 509.984L737.049 510.027L798.637 530.764H800.526L737.551 509.56L690.651 446.395L690.525 446.352L596.854 414.808ZM608.579 406.916L565.367 348.713V349.983L607.95 407.338L608.075 407.38L701.747 438.923L748.647 502.087L748.771 502.129L833.809 530.763H835.698L749.275 501.662L702.376 438.495L702.25 438.453L608.579 406.916ZM643.627 477.932L565.362 451.582V452.218L643.121 478.4L682.002 530.763H682.945L643.751 477.976L643.627 477.932ZM1346.61 288.901L1354.65 291.611V290.972L1347.24 288.475L1300.34 225.31L1300.21 225.267L1206.54 193.727L1159.65 130.561L1159.52 130.518L1065.85 98.977L1018.95 35.81L1018.82 35.767L925.15 4.22901L921.443 -0.763991H920.5L924.522 4.65301L924.647 4.69601L1018.32 36.236L1065.22 99.402L1065.34 99.445L1159.02 130.987L1205.92 194.152L1206.04 194.194L1299.71 225.735L1346.61 288.901ZM1323.29 304.736L1354.65 315.297V314.66L1323.79 304.269L1276.89 241.103L1276.77 241.061L1183.09 209.52L1136.19 146.353L1136.07 146.311L1042.4 114.771L995.498 51.604L995.371 51.562L901.702 20.022L886.27 -0.762991H885.323L901.071 20.446L901.197 20.487L994.869 52.027L1041.77 115.193L1041.89 115.237L1135.57 146.777L1182.46 209.943L1182.59 209.986L1276.26 241.528L1323.16 304.692L1323.29 304.736ZM1334.89 391.546L1354.65 418.166V416.896L1335.52 391.122L1335.39 391.08L1241.72 359.54L1194.82 296.372L1194.69 296.331L1101.02 264.789L1054.12 201.624L1054 201.581L960.324 170.04L913.427 106.875L913.302 106.832L819.627 75.29L772.729 12.123L772.603 12.081L734.454 -0.764991H732.565L772.101 12.547L818.997 75.714L819.122 75.756L912.796 107.297L959.695 170.464L959.82 170.506L1053.49 202.047L1100.39 265.214L1100.52 265.256L1194.19 296.795L1241.09 359.965L1241.21 360.004L1334.89 391.546ZM1346.61 383.647L1354.65 394.478V393.208L1347.24 383.224L1347.11 383.182L1253.44 351.642L1206.54 288.473L1206.42 288.433L1112.74 256.891L1065.84 193.726L1065.72 193.684L972.046 162.142L925.149 98.977L925.022 98.934L831.35 67.395L784.449 4.23001L784.324 4.18601L769.624 -0.764991H767.735L783.821 4.65201L830.718 67.818L830.845 67.86L924.521 99.401L971.417 162.567L971.542 162.61L1065.22 194.151L1112.11 257.318L1112.24 257.36L1205.91 288.9L1252.81 352.069L1252.94 352.111L1346.61 383.647ZM1346.61 4.65501L1354.65 15.483V14.213L1347.24 4.23201L1347.11 4.18801L1332.42 -0.762991H1330.52L1346.61 4.65501ZM1288.11 328.423L1354.65 350.829V350.189L1288.61 327.957L1241.72 264.79L1241.59 264.747L1147.92 233.206L1101.02 170.039L1100.9 169.997L1007.22 138.457L960.323 75.29L960.197 75.247L866.525 43.706L833.507 -0.764991H832.561L865.896 44.13L866.021 44.173L959.693 75.714L1006.59 138.881L1006.72 138.924L1100.39 170.464L1147.29 233.631L1147.42 233.673L1241.09 265.214L1287.99 328.381L1288.11 328.423ZM1299.84 320.525L1354.65 338.982V338.346L1300.34 320.062L1253.44 256.894L1253.32 256.852L1159.64 225.312L1112.74 162.145L1112.62 162.103L1018.95 130.563L972.047 67.395L971.922 67.353L878.25 35.812L851.095 -0.764991H850.151L877.622 36.234L877.747 36.276L971.42 67.818L1018.32 130.985L1018.44 131.027L1112.12 162.567L1159.02 225.734L1159.14 225.777L1252.81 257.318L1299.71 320.484L1299.84 320.525ZM1311.56 312.631L1354.65 327.138V326.502L1312.06 312.163L1265.17 248.997L1265.04 248.955L1171.37 217.414L1124.47 154.247L1124.34 154.204L1030.67 122.665L983.774 59.498L983.649 59.455L889.977 27.915L868.681 -0.765991H867.737L889.345 28.338L889.47 28.382L983.145 59.922L1030.04 123.088L1030.17 123.131L1123.84 154.673L1170.74 217.839L1170.86 217.882L1264.54 249.423L1311.44 312.587L1311.56 312.631ZM1323.29 494.234L1354.65 504.794V504.157L1323.79 493.765L1276.89 430.6L1276.77 430.557L1183.09 399.018L1136.19 335.849L1136.07 335.81L1042.4 304.266L995.498 241.101L995.371 241.059L901.698 209.519L854.8 146.354L854.673 146.312L761 114.771L714.101 51.604L713.976 51.562L620.305 20.021L604.875 -0.764991H603.928L619.677 20.444L619.802 20.485L713.475 52.025L760.375 115.191L760.5 115.235L854.174 146.775L901.071 209.941L901.197 209.984L994.869 241.526L1041.77 304.691L1041.89 304.734L1135.57 336.274L1182.46 399.441L1182.59 399.482L1276.26 431.025L1323.16 494.19L1323.29 494.234ZM1335.01 486.338L1354.65 492.952V492.315L1335.52 485.873L1288.62 422.706L1288.49 422.665L1194.82 391.122L1147.92 327.957L1147.8 327.914L1054.12 296.372L1007.22 233.206L1007.1 233.163L913.427 201.622L866.528 138.455L866.403 138.412L772.731 106.872L725.831 43.705L725.706 43.663L632.033 12.122L622.465 -0.765991H621.52L631.403 12.546L631.53 12.589L725.203 44.129L772.103 107.296L772.228 107.339L865.9 138.88L912.798 202.046L912.925 202.088L1006.6 233.628L1053.49 296.794L1053.62 296.836L1147.29 328.379L1194.19 391.545L1194.32 391.588L1287.99 423.127L1334.89 486.295L1335.01 486.338ZM1346.61 478.402L1354.65 481.11V480.472L1347.24 477.977L1300.34 414.809L1300.21 414.768L1206.54 383.227L1159.64 320.062L1159.52 320.018L1065.84 288.475L1018.95 225.308L1018.82 225.265L925.152 193.724L878.25 130.56L878.126 130.516L784.451 98.975L737.555 35.808L737.43 35.765L643.755 4.22701L640.049 -0.765991H639.107L643.127 4.65101L643.254 4.69401L736.928 36.234L783.822 99.4L783.947 99.443L877.621 130.985L924.521 194.15L924.646 194.192L1018.32 225.733L1065.22 288.899L1065.34 288.942L1159.02 320.484L1205.91 383.648L1206.04 383.692L1299.71 415.231L1346.61 478.402ZM1323.16 399.44L1354.65 441.853V440.582L1323.79 399.019L1323.66 398.975L1229.99 367.436L1183.09 304.268L1182.97 304.225L1089.29 272.685L1042.4 209.518L1042.27 209.475L948.596 177.934L901.7 114.767L901.575 114.725L807.9 83.186L761 20.021L760.876 19.978L699.276 -0.764991H697.388L760.374 20.444L807.271 83.609L807.396 83.652L901.069 115.192L947.967 178.359L948.092 178.401L1041.77 209.942L1088.67 273.109L1088.79 273.148L1182.46 304.691L1229.36 367.858L1229.49 367.9L1323.16 399.44ZM1299.84 510.025L1354.65 528.482V527.846L1300.34 509.559L1253.44 446.395L1253.32 446.35L1159.64 414.809L1112.74 351.645L1112.62 351.601L1018.95 320.062L972.046 256.894L971.92 256.852L878.248 225.312L831.349 162.145L831.224 162.103L737.552 130.563L690.652 67.395L690.526 67.353L596.854 35.812L569.702 -0.765991H568.756L596.23 36.233L596.355 36.275L690.027 67.817L736.927 130.984L737.051 131.026L830.723 162.566L877.621 225.733L877.746 225.776L971.417 257.317L1018.32 320.484L1018.44 320.524L1112.11 352.066L1159.01 415.231L1159.14 415.275L1252.81 446.818L1299.71 509.983L1299.84 510.025ZM1311.44 407.337L1354.65 465.54V464.269L1312.06 406.913L1311.94 406.87L1218.26 375.33L1171.37 312.164L1171.24 312.121L1077.57 280.581L1030.67 217.415L1030.55 217.373L936.873 185.832L889.976 122.667L889.85 122.624L796.178 91.082L749.282 27.916L749.155 27.873L664.103 -0.764991H662.215L748.649 28.339L795.547 91.504L795.674 91.548L889.348 123.089L936.245 186.254L936.37 186.297L1030.04 217.838L1076.94 281.001L1077.07 281.045L1170.74 312.587L1217.64 375.753L1217.77 375.795L1311.44 407.337ZM1276.39 336.319L1354.65 362.673V362.037L1276.89 335.851L1229.99 272.686L1229.87 272.643L1136.19 241.103L1089.3 177.936L1089.17 177.893L995.499 146.352L948.6 83.186L948.474 83.144L854.803 51.602L815.923 -0.765991H814.98L854.175 52.024L854.3 52.067L947.973 83.608L994.871 146.774L994.996 146.816L1088.67 178.357L1135.57 241.524L1135.69 241.567L1229.37 273.108L1276.26 336.275L1276.39 336.319ZM1311.56 502.127L1354.65 516.637V515.999L1312.06 501.662L1265.17 438.498L1265.04 438.455L1171.37 406.916L1124.47 343.747L1124.34 343.708L1030.67 312.164L983.772 248.999L983.649 248.957L889.976 217.416L843.076 154.249L842.949 154.206L749.279 122.665L702.381 59.499L702.256 59.456L608.582 27.916L587.285 -0.764991H586.34L607.95 28.339L608.075 28.382L701.749 59.92L748.648 123.085L748.773 123.128L842.447 154.67L889.343 217.836L889.468 217.879L983.143 249.42L1030.04 312.586L1030.17 312.63L1123.84 344.168L1170.74 407.336L1170.86 407.377L1264.54 438.919L1311.43 502.084L1311.56 502.127ZM1335.01 296.844L1354.65 303.456V302.817L1335.51 296.375L1288.62 233.209L1288.49 233.166L1194.82 201.625L1147.92 138.458L1147.8 138.415L1054.12 106.874L1007.22 43.706L1007.1 43.664L913.427 12.123L903.86 -0.764991H902.915L912.798 12.547L912.925 12.59L1006.6 44.13L1053.49 107.297L1053.62 107.34L1147.29 138.881L1194.19 202.048L1194.32 202.09L1287.99 233.631L1334.89 296.795L1335.01 296.844ZM1311.56 123.132L1354.65 137.641V137.005L1312.06 122.667L1265.17 59.5L1265.04 59.457L1171.37 27.916L1150.07 -0.764991H1149.13L1170.74 28.339L1170.86 28.382L1264.54 59.921L1311.44 123.088L1311.56 123.132ZM1288.11 138.924L1354.65 161.329V160.692L1288.61 138.457L1241.72 75.291L1241.59 75.248L1147.92 43.707L1114.9 -0.763991H1113.96L1147.29 44.131L1147.42 44.174L1241.09 75.715L1287.99 138.882L1288.11 138.924ZM1276.39 146.819L1354.65 173.172V172.536L1276.89 146.353L1229.99 83.187L1229.87 83.145L1136.19 51.605L1097.31 -0.762991H1096.37L1135.56 52.027L1135.69 52.07L1229.36 83.611L1276.26 146.777L1276.39 146.819ZM1299.84 131.029L1354.65 149.485V148.849L1300.34 130.563L1253.44 67.395L1253.32 67.353L1159.64 35.812L1132.49 -0.762991H1131.55L1159.02 36.236L1159.14 36.278L1252.81 67.82L1299.71 130.987L1299.84 131.029ZM1264.66 154.715L1354.65 185.016V184.38L1265.17 154.249L1218.27 91.082L1218.14 91.04L1124.47 59.499L1079.73 -0.764991H1078.78L1123.84 59.922L1123.97 59.965L1217.64 91.507L1264.54 154.674L1264.66 154.715ZM1334.89 12.548L1354.65 39.169V37.898L1335.52 12.125L1335.39 12.084L1297.24 -0.762991H1295.35L1334.89 12.548ZM1311.44 28.341L1354.65 86.545V85.273L1312.06 27.918L1311.94 27.875L1226.89 -0.762991H1225L1311.44 28.341ZM1323.16 20.446L1354.65 62.857V61.586L1323.79 20.022L1323.67 19.979L1262.06 -0.762991H1260.18L1323.16 20.446ZM1346.61 194.15L1354.65 204.981V203.709L1347.24 193.728L1347.11 193.686L1253.44 162.144L1206.54 98.979L1206.42 98.936L1112.74 67.395L1065.85 4.23001L1065.72 4.18601L1051.02 -0.764991H1049.13L1065.22 4.65201L1112.11 67.818L1112.24 67.86L1205.92 99.401L1252.81 162.567L1252.94 162.61L1346.61 194.15ZM1323.29 115.237L1354.65 125.797V125.161L1323.79 114.771L1276.89 51.605L1276.77 51.563L1183.09 20.023L1167.66 -0.762991H1166.72L1182.46 20.446L1182.59 20.487L1276.26 52.027L1323.16 115.193L1323.29 115.237ZM1311.44 217.838L1354.65 276.042V274.772L1312.06 217.415L1311.94 217.373L1218.27 185.832L1171.37 122.667L1171.24 122.624L1077.57 91.083L1030.67 27.917L1030.55 27.874L945.499 -0.762991H943.61L1030.04 28.341L1076.94 91.507L1077.07 91.55L1170.74 123.091L1217.64 186.256L1217.77 186.299L1311.44 217.838ZM1334.89 202.047L1354.66 228.669V227.398L1335.52 201.625L1335.39 201.582L1241.72 170.041L1194.82 106.876L1194.7 106.833L1101.02 75.291L1054.12 12.124L1054 12.082L1015.85 -0.764991H1013.96L1053.49 12.547L1100.39 75.714L1100.52 75.756L1194.19 107.297L1241.09 170.464L1241.21 170.506L1334.89 202.047ZM1323.16 209.944L1354.65 252.357V251.084L1323.79 209.52L1323.66 209.477L1229.99 177.936L1183.09 114.769L1182.97 114.727L1089.29 83.186L1042.4 20.021L1042.27 19.978L980.67 -0.763991H978.781L1041.77 20.445L1088.67 83.61L1088.79 83.653L1182.46 115.193L1229.36 178.36L1229.49 178.402L1323.16 209.944ZM1335.01 107.34L1354.65 113.953V113.317L1335.52 106.875L1288.62 43.708L1288.49 43.666L1194.82 12.125L1185.25 -0.762991H1184.31L1194.19 12.549L1194.32 12.592L1287.99 44.132L1334.89 107.299L1335.01 107.34ZM1346.61 99.4L1354.65 102.109V101.472L1347.24 98.978L1300.34 35.811L1300.21 35.769L1206.54 4.22801L1202.84 -0.764991H1201.89L1205.92 4.65201L1206.04 4.69501L1299.71 36.235L1346.61 99.4ZM1264.66 344.213L1354.65 374.514V373.877L1265.17 343.747L1218.27 280.581L1218.14 280.539L1124.47 248.999L1077.57 185.832L1077.44 185.79L983.771 154.249L936.875 91.082L936.749 91.04L843.076 59.499L798.332 -0.765991H797.388L842.449 59.922L842.574 59.964L936.247 91.505L983.146 154.672L983.271 154.713L1076.94 186.254L1123.84 249.422L1123.97 249.463L1217.64 281L1264.54 344.17L1264.66 344.213Z" fill="white" fill-opacity=".2"/>
<path d="M2018.76 256.851L2018.63 256.894L1971.73 320.059L1878.06 351.601L1877.94 351.643L1831.04 414.808L1737.36 446.351L1737.24 446.394L1690.34 509.559L1627.36 530.763H1629.25L1690.84 510.026L1690.97 509.983L1737.87 446.818L1831.54 415.275L1831.67 415.231L1878.57 352.066L1972.23 320.524L1972.36 320.484L2019.26 257.317L2112.93 225.776L2113.06 225.733L2143.92 184.17V182.898L2112.43 225.31L2018.76 256.851ZM2007.03 248.957L2006.91 248.999L1960.01 312.164L1866.34 343.708L1866.21 343.747L1819.31 406.916L1725.64 438.455L1725.51 438.498L1678.62 501.664L1592.19 530.764H1594.08L1679.12 502.13L1679.24 502.088L1726.14 438.923L1819.81 407.381L1819.94 407.34L1866.84 344.172L1960.51 312.634L1960.64 312.59L2007.54 249.424L2101.21 217.883L2101.33 217.84L2143.92 160.485V159.212L2100.71 217.417L2007.03 248.957ZM2053.81 91.083L2006.91 154.25L1913.24 185.791L1913.11 185.833L1866.21 248.997L1772.54 280.539L1772.41 280.581L1725.52 343.747L1631.84 375.291L1631.71 375.33L1584.82 438.498L1491.14 470.037L1491.02 470.08L1445.96 530.763H1446.91L1491.65 470.502L1585.32 438.963L1585.44 438.92L1632.34 375.752L1726.02 344.213L1726.14 344.169L1773.04 281.001L1866.71 249.462L1866.84 249.421L1913.74 186.253L2007.41 154.712L2007.53 154.671L2054.43 91.504L2143.92 61.375V60.739L2053.93 91.041L2053.81 91.083ZM2065.53 98.979L2018.63 162.144L1924.96 193.686L1924.84 193.728L1877.94 256.895L1784.26 288.435L1784.14 288.475L1737.24 351.644L1643.57 383.184L1643.44 383.226L1596.55 446.395L1502.87 477.934L1502.74 477.977L1463.55 530.764H1464.49L1503.37 478.401L1597.04 446.858L1597.17 446.819L1644.07 383.649L1737.74 352.11L1737.87 352.067L1784.76 288.9L1878.44 257.36L1878.56 257.318L1925.46 194.151L2019.14 162.61L2019.26 162.567L2066.16 99.401L2143.92 73.218V72.583L2065.66 98.935L2065.53 98.979ZM2124.16 327.957L2077.26 391.122L1983.58 422.665L1983.46 422.706L1936.56 485.873L1842.89 517.412L1842.76 517.456L1832.88 530.764H1833.82L1843.39 517.88L1937.06 486.337L1937.19 486.298L1984.09 423.128L2077.76 391.589L2077.89 391.546L2124.78 328.381L2143.92 321.935V321.299L2124.28 327.913L2124.16 327.957ZM2135.88 335.852L2088.98 399.021L1995.31 430.559L1995.18 430.603L1948.28 493.767L1854.61 525.311L1854.48 525.353L1850.46 530.766H1851.41L1855.11 525.778L1948.79 494.236L1948.91 494.193L1995.81 431.028L2089.49 399.485L2089.61 399.444L2136.51 336.277L2143.92 333.784V333.145L2136 335.812L2135.88 335.852ZM2042.21 272.644L2042.08 272.687L1995.18 335.852L1901.51 367.394L1901.38 367.438L1854.48 430.603L1760.81 462.144L1760.69 462.185L1713.79 525.353L1697.71 530.766H1699.6L1714.29 525.818L1714.42 525.778L1761.32 462.611L1854.99 431.071L1855.11 431.028L1902.01 367.859L1995.69 336.32L1995.81 336.277L2042.71 273.112L2136.38 241.571L2136.51 241.528L2143.92 231.548V230.276L2135.88 241.105L2042.21 272.644ZM2030.48 264.748L2030.36 264.791L1983.46 327.958L1889.79 359.499L1889.66 359.541L1842.76 422.707L1749.09 454.249L1748.96 454.292L1702.06 517.457L1662.54 530.765H1664.43L1702.57 517.923L1702.69 517.881L1749.59 454.714L1843.27 423.173L1843.39 423.129L1890.29 359.965L1983.96 328.421L1984.09 328.382L2030.98 265.215L2124.66 233.674L2124.78 233.632L2143.92 207.859V206.587L2124.15 233.209L2030.48 264.748ZM2112.43 130.563L2065.53 193.729L1971.86 225.269L1971.73 225.312L1924.83 288.476L1831.16 320.019L1831.03 320.063L1784.14 383.228L1690.46 414.769L1690.34 414.81L1643.44 477.978L1549.77 509.518L1549.64 509.56L1533.9 530.764H1534.84L1550.27 509.984L1643.94 478.442L1644.07 478.401L1690.97 415.234L1784.64 383.694L1784.77 383.651L1831.67 320.485L1925.34 288.944L1925.46 288.9L1972.36 225.735L2066.04 194.194L2066.16 194.152L2113.06 130.987L2143.92 120.595V119.958L2112.55 130.519L2112.43 130.563ZM2135.88 146.353L2088.98 209.52L1995.31 241.061L1995.18 241.103L1948.28 304.268L1854.61 335.812L1854.48 335.851L1807.59 399.02L1713.91 430.559L1713.79 430.602L1666.89 493.767L1573.22 525.311L1573.09 525.353L1569.07 530.765H1570.02L1573.72 525.778L1667.39 494.236L1667.52 494.192L1714.42 431.027L1808.09 399.484L1808.21 399.445L1855.11 336.276L1948.79 304.737L1948.91 304.693L1995.81 241.529L2089.48 209.987L2089.61 209.944L2136.51 146.778L2143.92 144.283V143.647L2136 146.312L2135.88 146.353ZM2124.16 138.457L2077.26 201.624L1983.58 233.165L1983.46 233.208L1936.56 296.374L1842.89 327.916L1842.76 327.959L1795.86 391.123L1702.19 422.666L1702.06 422.706L1655.17 485.875L1561.49 517.414L1561.37 517.457L1551.49 530.766H1552.43L1562 517.881L1655.67 486.338L1655.8 486.299L1702.69 423.13L1796.36 391.591L1796.49 391.548L1843.39 328.382L1937.06 296.841L1937.19 296.797L1984.09 233.633L2077.76 202.091L2077.89 202.049L2124.78 138.882L2143.92 132.44V131.803L2124.28 138.417L2124.16 138.457ZM2077.26 106.875L2030.36 170.04L1936.68 201.581L1936.56 201.624L1889.66 264.791L1795.99 296.332L1795.86 296.373L1748.96 359.538L1655.29 391.081L1655.17 391.123L1608.27 454.292L1514.59 485.831L1514.47 485.874L1481.14 530.765H1482.08L1515.1 486.299L1608.77 454.755L1608.9 454.714L1655.79 391.547L1749.47 360.004L1749.59 359.965L1796.49 296.798L1890.17 265.256L1890.29 265.214L1937.19 202.047L2030.86 170.506L2030.99 170.464L2077.89 107.297L2143.92 85.063V84.429L2077.38 106.833L2077.26 106.875ZM2042.21 83.145L2042.08 83.187L1995.18 146.353L1901.51 177.894L1901.38 177.937L1854.48 241.104L1760.81 272.644L1760.69 272.687L1713.79 335.852L1620.11 367.394L1619.99 367.438L1573.09 430.603L1479.42 462.144L1479.29 462.185L1432.4 525.353L1416.32 530.766H1418.21L1432.9 525.818L1433.03 525.778L1479.92 462.611L1573.6 431.071L1573.72 431.028L1620.62 367.859L1714.3 336.32L1714.42 336.277L1761.32 273.112L1854.99 241.571L1855.12 241.528L1902.02 178.361L1995.69 146.819L1995.81 146.777L2042.71 83.611L2136.38 52.07L2136.51 52.027L2143.92 42.047V40.776L2135.88 51.605L2042.21 83.145ZM2088.98 114.77L2042.08 177.937L1948.41 209.478L1948.28 209.521L1901.39 272.688L1807.71 304.227L1807.59 304.27L1760.69 367.438L1667.02 398.979L1666.89 399.022L1619.99 462.186L1526.32 493.73L1526.19 493.768L1498.72 530.766H1499.67L1526.82 494.193L1620.49 462.654L1620.62 462.611L1667.52 399.444L1761.19 367.902L1761.32 367.859L1808.22 304.694L1901.89 273.152L1902.01 273.112L1948.91 209.945L2042.59 178.403L2042.71 178.361L2089.61 115.195L2143.92 96.907V96.271L2089.11 114.729L2088.98 114.77ZM2112.43 320.063L2065.53 383.228L1971.86 414.769L1971.73 414.81L1924.84 477.978L1831.16 509.518L1831.04 509.56L1815.29 530.764H1816.23L1831.67 509.984L1925.34 478.442L1925.46 478.401L1972.36 415.234L2066.03 383.694L2066.16 383.651L2113.06 320.485L2143.92 310.094V309.457L2112.56 320.016L2112.43 320.063ZM2124.16 43.708L2030.48 75.249L2030.36 75.292L1983.46 138.459L1889.79 169.999L1889.66 170.041L1842.76 233.208L1749.09 264.748L1748.96 264.791L1702.06 327.958L1608.39 359.499L1608.27 359.541L1561.37 422.707L1467.69 454.249L1467.57 454.292L1420.67 517.457L1381.14 530.765H1383.03L1421.17 517.923L1421.3 517.881L1468.2 454.714L1561.87 423.173L1562 423.129L1608.89 359.965L1702.57 328.421L1702.69 328.382L1749.59 265.215L1843.26 233.674L1843.39 233.632L1890.28 170.465L1983.96 138.925L1984.08 138.882L2030.99 75.717L2124.66 44.176L2124.79 44.133L2143.92 18.361V17.09L2124.16 43.708ZM2100.71 122.667L2053.81 185.832L1960.13 217.375L1960.01 217.417L1913.11 280.581L1819.44 312.122L1819.31 312.166L1772.41 375.331L1678.74 406.873L1678.61 406.916L1631.71 470.083L1538.04 501.625L1537.92 501.665L1516.31 530.766H1517.26L1538.55 502.088L1632.22 470.548L1632.35 470.505L1679.24 407.34L1772.92 375.798L1773.04 375.755L1819.94 312.59L1913.61 281.047L1913.74 281.004L1960.64 217.84L2054.31 186.299L2054.44 186.256L2101.33 123.091L2143.92 108.753V108.117L2100.83 122.625L2100.71 122.667ZM2077.26 485.872L2043.92 530.763H2044.87L2077.89 486.296L2143.92 464.06V463.424L2077.38 485.827L2077.26 485.872ZM2088.98 493.766L2061.51 530.763H2062.46L2089.61 494.19L2143.92 475.905V475.267L2089.11 493.724L2088.98 493.766ZM2053.81 470.08L2008.75 530.763H2009.69L2054.44 470.502L2143.92 440.375V439.735L2053.93 470.036L2053.81 470.08ZM2100.71 501.662L2079.1 530.763H2080.04L2101.33 502.085L2143.92 487.747V487.111L2100.83 501.622L2100.71 501.662ZM2042.21 462.143L2042.08 462.183L1995.18 525.352L1979.11 530.764H1981L1995.69 525.817L1995.81 525.777L2042.71 462.609L2136.38 431.071L2136.51 431.026L2143.92 421.047V419.776L2135.88 430.604L2042.21 462.143ZM2135.88 525.352L2131.86 530.764H2132.8L2136.51 525.777L2143.92 523.281V522.645L2136 525.31L2135.88 525.352ZM2124.16 517.454L2114.27 530.763H2115.22L2124.78 517.879L2143.92 511.437V510.799L2124.28 517.409L2124.16 517.454ZM2100.71 312.164L2053.81 375.33L1960.13 406.873L1960.01 406.916L1913.11 470.08L1819.44 501.623L1819.31 501.664L1797.7 530.764H1798.65L1819.94 502.087L1913.61 470.547L1913.74 470.503L1960.64 407.338L2054.31 375.795L2054.44 375.753L2101.33 312.587L2143.92 298.25V297.614L2100.83 312.121L2100.71 312.164ZM2112.43 509.559L2096.69 530.763H2097.63L2113.06 509.983L2143.92 499.593V498.954L2112.56 509.515L2112.43 509.559ZM2030.48 454.246L2030.36 454.29L1983.46 517.454L1943.93 530.763H1945.82L1983.96 517.92L1984.09 517.879L2030.99 454.712L2124.66 423.17L2124.79 423.127L2143.92 397.355V396.084L2124.16 422.703L2030.48 454.246ZM2065.53 288.476L2018.63 351.646L1924.96 383.183L1924.83 383.225L1877.94 446.394L1784.26 477.933L1784.14 477.976L1744.94 530.763H1745.89L1784.76 478.4L1878.44 446.857L1878.57 446.818L1925.46 383.648L2019.14 352.109L2019.26 352.066L2066.16 288.899L2143.92 262.716V262.081L2065.65 288.434L2065.53 288.476ZM2088.98 304.27L2042.08 367.438L1948.41 398.977L1948.28 399.021L1901.39 462.185L1807.71 493.728L1807.59 493.767L1780.12 530.764H1781.06L1808.22 494.191L1901.89 462.653L1902.01 462.609L1948.91 399.444L2042.59 367.901L2042.71 367.859L2089.61 304.692L2143.92 286.407V285.767L2089.11 304.224L2088.98 304.27ZM2077.26 296.372L2030.36 359.54L1936.68 391.08L1936.56 391.122L1889.66 454.291L1795.99 485.83L1795.86 485.873L1762.53 530.764H1763.48L1796.49 486.298L1890.17 454.754L1890.29 454.713L1937.19 391.546L2030.86 360.003L2030.99 359.964L2077.89 296.794L2143.92 274.559V273.924L2077.38 296.329L2077.26 296.372ZM2053.81 280.581L2006.91 343.747L1913.24 375.291L1913.11 375.33L1866.21 438.498L1772.54 470.037L1772.41 470.08L1727.36 530.764H1728.3L1773.04 470.503L1866.71 438.965L1866.84 438.923L1913.74 375.753L2007.41 344.213L2007.54 344.171L2054.43 281.001L2143.92 250.875V250.239L2053.93 280.54L2053.81 280.581ZM2018.76 446.351L2018.63 446.394L1971.73 509.559L1908.76 530.763H1910.65L1972.23 510.026L1972.36 509.983L2019.26 446.818L2112.93 415.275L2113.06 415.231L2143.92 373.668V372.398L2112.43 414.807L2018.76 446.351ZM2007.03 438.453L2006.91 438.495L1960.01 501.662L1873.59 530.763H1875.47L1960.51 502.129L1960.64 502.087L2007.54 438.923L2101.21 407.38L2101.33 407.338L2143.92 349.983V348.713L2100.71 406.916L2007.03 438.453ZM2065.53 477.976L2026.34 530.763H2027.28L2066.16 478.4L2143.92 452.218V451.582L2065.66 477.932L2065.53 477.976ZM1409.57 225.734L1503.24 194.193L1503.37 194.151L1550.27 130.986L1643.94 99.444L1644.07 99.401L1690.97 36.235L1784.64 4.695L1784.76 4.652L1788.78 -0.764998H1787.84L1784.13 4.228L1690.46 35.767L1690.33 35.81L1643.44 98.977L1549.77 130.518L1549.64 130.561L1502.74 193.727L1409.07 225.267L1408.94 225.31L1362.04 288.475L1354.63 290.972V291.611L1362.67 288.901L1409.57 225.734ZM1386.12 304.691L1433.02 241.527L1526.69 209.985L1526.82 209.942L1573.72 146.776L1667.39 115.236L1667.52 115.192L1714.41 52.026L1808.09 20.486L1808.21 20.445L1823.96 -0.763998H1823.01L1807.58 20.022L1713.91 51.562L1713.79 51.604L1666.89 114.771L1573.21 146.311L1573.09 146.353L1526.19 209.52L1432.52 241.061L1432.39 241.103L1385.49 304.269L1354.63 314.66V315.297L1386 304.736L1386.12 304.691ZM1468.07 360.003L1468.19 359.964L1515.09 296.794L1608.77 265.255L1608.89 265.213L1655.79 202.046L1749.46 170.505L1749.59 170.463L1796.49 107.296L1890.16 75.755L1890.29 75.713L1937.18 12.546L1976.72 -0.765998H1974.83L1936.68 12.081L1936.55 12.123L1889.66 75.29L1795.98 106.832L1795.86 106.875L1748.96 170.04L1655.29 201.581L1655.16 201.624L1608.26 264.789L1514.59 296.331L1514.46 296.372L1467.56 359.54L1373.89 391.08L1373.77 391.122L1354.63 416.896V418.166L1374.4 391.546L1468.07 360.003ZM1456.35 352.11L1456.47 352.068L1503.37 288.899L1597.04 257.359L1597.17 257.317L1644.07 194.15L1737.74 162.609L1737.87 162.566L1784.76 99.4L1878.44 67.859L1878.57 67.817L1925.46 4.651L1941.55 -0.765998H1939.66L1924.96 4.185L1924.83 4.229L1877.94 67.394L1784.26 98.935L1784.14 98.978L1737.24 162.143L1643.56 193.685L1643.44 193.727L1596.54 256.892L1502.87 288.434L1502.74 288.474L1455.84 351.643L1362.17 383.183L1362.04 383.225L1354.63 393.209V394.479L1362.68 383.648L1456.35 352.11ZM1378.76 -0.762998H1376.87L1362.17 4.188L1362.04 4.232L1354.63 14.213V15.483L1362.67 4.655L1378.76 -0.762998ZM1421.3 328.381L1468.19 265.214L1561.87 233.673L1562 233.631L1608.89 170.464L1702.57 138.924L1702.69 138.881L1749.59 75.714L1843.26 44.173L1843.39 44.13L1876.72 -0.764998H1875.78L1842.76 43.706L1749.09 75.247L1748.96 75.29L1702.06 138.457L1608.39 169.997L1608.26 170.039L1561.36 233.206L1467.69 264.747L1467.56 264.79L1420.67 327.957L1354.63 350.189V350.829L1421.17 328.423L1421.3 328.381ZM1409.57 320.484L1456.47 257.318L1550.14 225.777L1550.27 225.734L1597.17 162.567L1690.84 131.027L1690.96 130.985L1737.86 67.818L1831.54 36.276L1831.66 36.234L1859.13 -0.764998H1858.19L1831.03 35.812L1737.36 67.353L1737.24 67.395L1690.34 130.563L1596.67 162.103L1596.54 162.145L1549.64 225.312L1455.97 256.852L1455.84 256.894L1408.95 320.062L1354.63 338.346V338.982L1409.45 320.525L1409.57 320.484ZM1397.85 312.587L1444.75 249.423L1538.42 217.882L1538.55 217.839L1585.44 154.673L1679.12 123.131L1679.24 123.088L1726.14 59.922L1819.81 28.382L1819.94 28.338L1841.55 -0.765998H1840.6L1819.31 27.915L1725.64 59.455L1725.51 59.498L1678.61 122.665L1584.94 154.204L1584.81 154.247L1537.92 217.414L1444.24 248.955L1444.12 248.997L1397.22 312.163L1354.63 326.502V327.138L1397.72 312.631L1397.85 312.587ZM1386.12 494.189L1433.02 431.024L1526.69 399.481L1526.82 399.44L1573.72 336.273L1667.39 304.733L1667.52 304.69L1714.41 241.525L1808.09 209.983L1808.21 209.94L1855.11 146.774L1948.78 115.234L1948.91 115.19L1995.81 52.024L2089.48 20.484L2089.6 20.443L2105.35 -0.765998H2104.41L2088.98 20.02L1995.31 51.561L1995.18 51.603L1948.28 114.77L1854.61 146.31L1854.48 146.352L1807.59 209.519L1713.91 241.059L1713.79 241.101L1666.89 304.266L1573.21 335.81L1573.09 335.849L1526.19 399.018L1432.52 430.557L1432.39 430.6L1385.49 493.765L1354.63 504.157V504.794L1386 494.234L1386.12 494.189ZM1374.4 486.295L1421.29 423.127L1514.97 391.588L1515.09 391.545L1561.99 328.379L1655.67 296.836L1655.79 296.794L1702.69 233.628L1796.36 202.088L1796.49 202.046L1843.38 138.88L1937.06 107.339L1937.18 107.296L1984.08 44.129L2077.75 12.589L2077.88 12.546L2087.76 -0.765998H2086.82L2077.25 12.122L1983.58 43.663L1983.45 43.705L1936.55 106.872L1842.88 138.412L1842.76 138.455L1795.86 201.622L1702.19 233.163L1702.06 233.206L1655.16 296.372L1561.49 327.914L1561.36 327.957L1514.46 391.122L1420.79 422.665L1420.67 422.706L1373.77 485.873L1354.63 492.315V492.952L1374.27 486.338L1374.4 486.295ZM1409.57 415.23L1503.24 383.691L1503.37 383.647L1550.27 320.483L1643.94 288.941L1644.07 288.898L1690.96 225.732L1784.64 194.191L1784.76 194.149L1831.66 130.984L1925.34 99.442L1925.46 99.399L1972.36 36.233L2066.03 4.693L2066.16 4.65L2070.18 -0.766998H2069.24L2065.53 4.226L1971.86 35.765L1971.73 35.808L1924.83 98.975L1831.16 130.516L1831.03 130.56L1784.13 193.725L1690.46 225.266L1690.34 225.309L1643.44 288.476L1549.77 320.019L1549.64 320.063L1502.74 383.228L1409.07 414.769L1408.95 414.81L1362.05 477.978L1354.64 480.473V481.111L1362.68 478.403L1409.57 415.23ZM1479.79 367.9L1479.92 367.858L1526.82 304.691L1620.49 273.148L1620.62 273.109L1667.52 209.942L1761.19 178.401L1761.31 178.359L1808.21 115.192L1901.89 83.652L1902.01 83.609L1948.91 20.444L2011.89 -0.764998H2010.01L1948.4 19.977L1948.28 20.02L1901.38 83.185L1807.71 114.726L1807.58 114.768L1760.69 177.935L1667.01 209.476L1666.89 209.519L1619.99 272.686L1526.32 304.226L1526.19 304.269L1479.29 367.437L1385.62 398.976L1385.49 399.02L1354.63 440.583V441.854L1386.12 399.441L1479.79 367.9ZM1409.57 509.982L1456.47 446.817L1550.14 415.274L1550.27 415.23L1597.17 352.065L1690.84 320.523L1690.96 320.483L1737.86 257.316L1831.54 225.775L1831.66 225.732L1878.56 162.565L1972.23 131.025L1972.36 130.983L2019.26 67.816L2112.93 36.274L2113.05 36.232L2140.53 -0.766998H2139.58L2112.43 35.811L2018.76 67.352L2018.63 67.394L1971.73 130.562L1878.06 162.102L1877.94 162.144L1831.04 225.311L1737.36 256.851L1737.24 256.893L1690.34 320.061L1596.67 351.6L1596.54 351.644L1549.64 414.808L1455.97 446.349L1455.84 446.394L1408.95 509.558L1354.63 527.845V528.481L1409.45 510.024L1409.57 509.982ZM1491.52 375.795L1491.65 375.753L1538.54 312.587L1632.22 281.045L1632.34 281.001L1679.24 217.838L1772.91 186.297L1773.04 186.254L1819.94 123.089L1913.61 91.548L1913.74 91.504L1960.64 28.339L2047.07 -0.764998H2045.18L1960.13 27.873L1960 27.916L1913.11 91.082L1819.44 122.624L1819.31 122.667L1772.41 185.832L1678.74 217.373L1678.61 217.415L1631.71 280.581L1538.04 312.121L1537.92 312.164L1491.02 375.33L1397.34 406.87L1397.22 406.913L1354.63 464.269V465.54L1397.85 407.337L1491.52 375.795ZM1433.02 336.276L1479.92 273.109L1573.59 241.568L1573.72 241.525L1620.61 178.358L1714.29 146.817L1714.41 146.775L1761.31 83.609L1854.98 52.068L1855.11 52.025L1894.31 -0.764998H1893.36L1854.48 51.603L1760.81 83.145L1760.68 83.187L1713.79 146.353L1620.11 177.894L1619.98 177.937L1573.09 241.104L1479.41 272.644L1479.29 272.687L1432.39 335.852L1354.63 362.038V362.674L1432.9 336.32L1433.02 336.276ZM1397.85 502.085L1444.75 438.92L1538.42 407.378L1538.55 407.337L1585.44 344.169L1679.12 312.631L1679.24 312.587L1726.14 249.421L1819.81 217.88L1819.94 217.837L1866.83 154.671L1960.51 123.129L1960.64 123.086L2007.53 59.921L2101.21 28.383L2101.33 28.34L2122.94 -0.763998H2122L2100.7 27.917L2007.03 59.457L2006.9 59.5L1960.01 122.666L1866.34 154.207L1866.21 154.25L1819.31 217.417L1725.64 248.958L1725.51 249L1678.61 312.165L1584.94 343.709L1584.82 343.748L1537.92 406.917L1444.24 438.456L1444.12 438.499L1397.22 501.663L1354.63 516V516.638L1397.72 502.128L1397.85 502.085ZM1374.4 296.794L1421.29 233.63L1514.97 202.089L1515.09 202.047L1561.99 138.88L1655.67 107.339L1655.79 107.296L1702.69 44.129L1796.36 12.589L1796.49 12.546L1806.37 -0.765998H1805.43L1795.86 12.122L1702.19 43.663L1702.06 43.705L1655.16 106.873L1561.49 138.414L1561.36 138.457L1514.47 201.624L1420.79 233.165L1420.67 233.208L1373.77 296.374L1354.63 302.816V303.455L1374.27 296.843L1374.4 296.794ZM1397.85 123.089L1444.75 59.922L1538.42 28.383L1538.55 28.34L1560.15 -0.763998H1559.21L1537.92 27.917L1444.24 59.458L1444.12 59.501L1397.22 122.668L1354.63 137.006V137.642L1397.72 123.133L1397.85 123.089ZM1421.3 138.882L1468.19 75.715L1561.87 44.174L1562 44.131L1595.33 -0.763998H1594.38L1561.36 43.707L1467.69 75.248L1467.56 75.291L1420.67 138.457L1354.63 160.692V161.329L1421.17 138.924L1421.3 138.882ZM1433.02 146.776L1479.92 83.61L1573.59 52.069L1573.72 52.026L1612.92 -0.763998H1611.97L1573.09 51.604L1479.42 83.144L1479.29 83.186L1432.39 146.352L1354.63 172.535V173.171L1432.9 146.818L1433.02 146.776ZM1409.57 130.987L1456.47 67.82L1550.14 36.278L1550.27 36.236L1577.74 -0.762998H1576.79L1549.64 35.812L1455.97 67.353L1455.84 67.395L1408.94 130.563L1354.63 148.849V149.485L1409.45 131.029L1409.57 130.987ZM1444.75 154.674L1491.64 91.507L1585.32 59.965L1585.44 59.922L1630.5 -0.764998H1629.56L1584.82 59.499L1491.14 91.04L1491.02 91.082L1444.12 154.249L1354.63 184.38V185.016L1444.62 154.715L1444.75 154.674ZM1413.94 -0.762998H1412.05L1373.89 12.084L1373.77 12.125L1354.63 37.898V39.169L1374.4 12.548L1413.94 -0.762998ZM1484.28 -0.762998H1482.39L1397.34 27.875L1397.22 27.918L1354.63 85.273V86.545L1397.85 28.341L1484.28 -0.762998ZM1449.11 -0.762998H1447.22L1385.62 19.979L1385.49 20.022L1354.63 61.586V62.857L1386.12 20.446L1449.11 -0.762998ZM1456.35 162.61L1456.47 162.567L1503.37 99.401L1597.04 67.86L1597.17 67.818L1644.07 4.652L1660.15 -0.764998H1658.26L1643.56 4.186L1643.44 4.23L1596.54 67.395L1502.87 98.936L1502.74 98.979L1455.84 162.144L1362.17 193.686L1362.04 193.728L1354.63 203.709V204.981L1362.67 194.15L1456.35 162.61ZM1386.12 115.193L1433.02 52.027L1526.69 20.487L1526.82 20.446L1542.57 -0.762998H1541.62L1526.19 20.023L1432.52 51.563L1432.39 51.605L1385.49 114.771L1354.63 125.161V125.797L1386 115.237L1386.12 115.193ZM1491.52 186.299L1491.65 186.256L1538.54 123.091L1632.22 91.55L1632.34 91.507L1679.24 28.341L1765.67 -0.762998H1763.79L1678.74 27.875L1678.61 27.918L1631.71 91.084L1538.04 122.625L1537.92 122.668L1491.02 185.833L1397.34 217.374L1397.22 217.416L1354.63 274.773V276.043L1397.85 217.839L1491.52 186.299ZM1468.07 170.506L1468.19 170.464L1515.09 107.297L1608.77 75.756L1608.89 75.714L1655.79 12.547L1695.32 -0.764998H1693.44L1655.28 12.082L1655.16 12.124L1608.26 75.291L1514.59 106.833L1514.46 106.876L1467.56 170.041L1373.89 201.582L1373.77 201.625L1354.63 227.398V228.669L1374.4 202.047L1468.07 170.506ZM1479.79 178.402L1479.92 178.36L1526.82 115.193L1620.49 83.653L1620.62 83.61L1667.52 20.445L1730.5 -0.763998H1728.61L1667.01 19.978L1666.89 20.021L1619.99 83.186L1526.32 114.727L1526.19 114.769L1479.29 177.936L1385.62 209.477L1385.49 209.52L1354.63 251.084V252.357L1386.12 209.944L1479.79 178.402ZM1374.4 107.298L1421.29 44.131L1514.97 12.591L1515.09 12.548L1524.98 -0.763998H1524.03L1514.46 12.124L1420.79 43.665L1420.67 43.707L1373.77 106.874L1354.63 113.316V113.952L1374.27 107.339L1374.4 107.298ZM1409.57 36.236L1503.24 4.696L1503.37 4.653L1507.39 -0.763998H1506.45L1502.74 4.229L1409.07 35.77L1408.94 35.812L1362.04 98.979L1354.63 101.473V102.11L1362.67 99.401L1409.57 36.236ZM1444.75 344.171L1491.64 281.001L1585.32 249.464L1585.44 249.423L1632.34 186.255L1726.01 154.714L1726.14 154.673L1773.04 91.506L1866.71 59.965L1866.83 59.923L1911.9 -0.764998H1910.95L1866.21 59.5L1772.54 91.041L1772.41 91.083L1725.51 154.25L1631.84 185.791L1631.71 185.833L1584.82 249L1491.14 280.54L1491.02 280.582L1444.12 343.748L1354.63 373.878V374.515L1444.62 344.214L1444.75 344.171Z" fill="white" fill-opacity=".2"/>
</g>
<defs>
<clipPath id="clip0_1330_11210">
<rect width="1920" height="530" fill="white"/>
</clipPath>
</defs>
</svg>